<svg width="18" height="18" viewBox="0 0 18 18" fill="none" xmlns="http://www.w3.org/2000/svg">
<g clip-path="url(#clip0)">
<path d="M15.2561 17.0406C14.7072 17.6862 13.8264 18 12.5638 18C12.564 18 12.5636 18 12.5638 18C12.0384 17.9999 11.4353 17.9435 10.7726 17.8324C5.22377 16.9021 4.94215 14.9797 4.94215 11.9202C4.94215 9.64821 6.38715 8.83611 7.27894 8.55126C6.72001 7.99731 5.87798 6.95417 5.65615 5.53422C5.39087 3.83613 6.32918 2.80826 6.81215 2.40216L6.35638 1.66594C6.2786 1.54023 6.29327 1.37827 6.39254 1.26872L7.03538 0.558706C7.10753 0.47893 7.21409 0.439208 7.32065 0.451979C7.42746 0.46475 7.52142 0.52852 7.57275 0.623057L8.14718 1.68054L8.3817 1.6278L8.25756 0.534989C8.24694 0.441116 8.2768 0.347077 8.33974 0.276589C8.40268 0.206102 8.49265 0.165799 8.58711 0.165799H9.54947C9.73083 0.165799 9.87852 0.311419 9.88118 0.492779L9.89212 1.25894L10.2044 1.24832L10.3459 0.283555C10.3717 0.108082 10.5316 -0.0160588 10.7073 0.00168753L11.5314 0.0846142C11.7112 0.102692 11.8435 0.261414 11.8288 0.441613L11.7212 1.76396L12.4097 2.60708C12.4674 2.67781 12.4934 2.7692 12.4817 2.85967C12.4699 2.95014 12.4213 3.03183 12.3474 3.08548C12.3326 3.09626 10.8567 4.17323 10.3631 5.10242C10.0689 5.65621 10.0868 6.23172 10.2564 6.51392C10.3014 6.58872 10.3544 6.63524 10.3945 6.63524L10.4049 6.63441C10.4659 6.59643 10.555 6.31904 10.6139 6.13544C10.7401 5.74204 10.8974 5.25252 11.2712 4.79949C11.8769 4.06567 12.8524 3.51222 13.5403 3.51222C13.7553 3.51222 13.9372 3.56438 14.0811 3.66713C14.6164 4.04942 14.6849 5.29307 14.6932 5.66516C14.6966 5.82181 14.59 5.95955 14.4375 5.99538L13.3647 6.24781C13.2005 6.28645 12.9172 6.37452 12.8661 6.52976C12.8343 6.62653 12.8301 6.93411 13.4785 7.69828C14.3693 8.74821 15.2071 9.92461 15.6671 12.7505C15.8867 14.099 16.1873 15.9457 15.2561 17.0406ZM5.90451 8.07468C5.89465 8.05743 4.91313 6.34168 4.81104 5.33511C4.71883 4.42632 5.07716 3.99684 5.08935 3.98241C5.15817 3.9067 5.18819 3.80354 5.1707 3.7027C5.1532 3.60186 5.09026 3.51479 4.99995 3.46661C4.96023 3.44538 4.59933 3.25929 4.18702 3.25929C3.91137 3.25929 3.66558 3.34512 3.47626 3.50741C3.00615 3.91035 3.08775 5.47974 3.19845 6.50504C2.92562 6.77771 2.60627 7.45032 2.43146 9.05603C2.16577 11.497 3.66798 13.1597 3.73209 13.2293C3.79635 13.2991 3.88542 13.3364 3.97614 13.3364C3.9773 13.3364 3.97846 13.3364 3.97962 13.3364C4.16189 13.3353 4.30942 13.1872 4.30942 13.0047C4.30942 12.9822 4.30718 12.9603 4.30295 12.9392C4.28396 12.7306 4.18652 11.4622 4.5014 10.2988C4.82224 9.11292 5.77648 8.53102 5.7851 8.52588C5.94191 8.43375 5.99524 8.23241 5.90451 8.07468Z" fill="#ED5F74"/>
</g>
<defs>
<clipPath id="clip0">
<rect width="18" height="18" fill="white"/>
</clipPath>
</defs>
</svg>
