<svg width="18" height="18" viewBox="0 0 18 18" fill="none" xmlns="http://www.w3.org/2000/svg">
<g clip-path="url(#clip0)">
<path fill-rule="evenodd" clip-rule="evenodd" d="M9.45287 0.682121C9.47756 0.275896 9.51631 0.166481 9.67776 0.0470698C9.73534 0.00449622 9.76221 0 9.95879 0C10.199 0 10.2446 0.0145324 10.3471 0.123747C10.4848 0.270416 10.5005 0.356245 10.4736 0.812933C10.436 1.44871 10.3176 2.07135 10.1537 2.4952C10.1106 2.60656 10.0791 2.70143 10.0836 2.706C10.0959 2.71829 10.5998 2.45074 10.8066 2.32216C10.9048 2.26108 11.0888 2.13834 11.2154 2.04937C11.5875 1.78803 11.8048 1.66236 11.904 1.65116C12.2691 1.60991 12.5644 2.0505 12.3941 2.38232C12.3 2.5656 11.8575 2.89703 11.1692 3.29993C10.8648 3.47813 10.2693 3.78293 10.0289 3.88363C9.95456 3.91479 9.88321 3.95294 9.8704 3.96842C9.84239 4.00226 9.87777 4.50471 9.9235 4.72272C9.98045 4.99404 10.2085 5.36223 10.4622 5.59242C10.7032 5.81103 10.9605 5.95483 11.2898 6.05487C11.4416 6.10095 11.5029 6.10846 11.7361 6.1095C12.1765 6.11145 12.3598 6.0426 12.8695 5.68405L13.1478 5.48824L13.2327 5.20801C13.4595 4.45889 13.5981 3.59084 13.6285 2.72985C13.6356 2.52561 13.6496 2.3267 13.6595 2.28782C13.6909 2.16451 13.7891 2.05457 13.9301 1.98502C14.0445 1.92856 14.0725 1.92262 14.1791 1.93231C14.3251 1.94558 14.43 2.00379 14.5735 2.15122L14.6776 2.25815L14.6582 2.67967C14.6347 3.19144 14.591 3.68929 14.5369 4.06156C14.5147 4.21441 14.5015 4.34442 14.5076 4.35048C14.5136 4.35654 14.614 4.27214 14.7307 4.1629C15.028 3.88466 15.2489 3.70003 15.3406 3.6531C15.4415 3.60152 15.621 3.60035 15.7314 3.65059C15.9813 3.7644 16.1127 4.09355 15.9992 4.32139C15.9101 4.50034 14.9406 5.39657 14.1913 5.99272L14.1143 6.05404L14.4692 6.17079C15.0713 6.36884 15.8602 6.79092 15.9795 6.97884C16.0373 7.06973 16.0601 7.2989 16.0227 7.41243C15.9817 7.53706 15.8868 7.64681 15.7748 7.69906C15.5721 7.79366 15.3918 7.75418 14.9756 7.52409C14.3621 7.18492 13.8035 7.0073 13.1433 6.94151L12.8985 6.91712L12.5225 7.17019C11.6769 7.73943 11.4315 8.00729 11.3434 8.45695C11.3134 8.61027 11.312 8.65832 11.3327 8.81479C11.4513 9.70725 12.2068 10.739 14.6371 13.3276C15.1919 13.9185 15.6707 14.4278 15.7011 14.4595C15.756 14.5166 15.7584 14.5171 16.0941 14.5346C16.8252 14.5727 17.5305 14.6765 17.7234 14.7744C17.8644 14.8459 17.9746 15.0021 17.9963 15.1613C18.0331 15.43 17.7871 15.735 17.5324 15.7363C17.488 15.7366 17.3168 15.715 17.152 15.6883C16.9871 15.6617 16.8027 15.6339 16.7422 15.6267C16.6816 15.6194 16.6163 15.609 16.597 15.6035C16.5777 15.598 16.562 15.6029 16.562 15.6143C16.562 15.6258 16.6347 15.7622 16.7236 15.9175C16.8125 16.0729 16.9448 16.3229 17.0175 16.4731C17.1802 16.809 17.1955 16.9036 17.1141 17.0705C17.0199 17.2634 16.8493 17.3716 16.6405 17.371C16.4016 17.3702 16.2933 17.2736 16.0682 16.8608C15.9019 16.5559 15.7411 16.2885 15.5251 15.9576C15.416 15.7904 15.3652 15.7043 15.3343 15.7109C15.3025 15.7177 15.2917 15.8228 15.2602 16.039C15.2037 16.4269 15.1819 16.8364 15.1989 17.1903C15.2157 17.5391 15.2013 17.6601 15.13 17.7681C15.0708 17.8577 14.928 17.9557 14.8103 17.9875C14.6359 18.0345 14.4025 17.9448 14.2961 17.7897C14.1984 17.6473 14.1738 17.4793 14.1733 16.9512C14.1728 16.3374 14.2367 15.7759 14.3711 15.2112L14.4222 14.9967L14.3539 14.89C14.248 14.7246 13.8882 14.2478 13.565 13.8446C12.6568 12.7116 12.167 12.1787 11.8362 11.9637C11.4616 11.7202 11.071 11.5546 10.715 11.4884C10.4867 11.4459 9.78057 11.4301 9.42744 11.4595C8.6434 11.525 8.21757 11.7167 7.68712 12.243C7.42959 12.4986 7.38888 12.5659 7.35275 12.7962C7.32618 12.9655 7.29066 13.4092 7.29066 13.5716V13.689L7.45586 13.772C7.91149 14.0011 8.34192 14.3707 8.58009 14.7372C8.72472 14.9597 8.9328 15.3906 9.0143 15.6364C9.12739 15.9774 9.11596 16.1303 8.96506 16.2951C8.79713 16.4785 8.56064 16.5298 8.35547 16.4273C8.23278 16.366 8.15829 16.268 8.0808 16.066C7.93104 15.6756 7.9007 15.606 7.82585 15.4809C7.67188 15.2235 7.39536 14.9101 7.37536 14.9702C7.36328 15.0065 7.46393 15.5067 7.55251 15.8507C7.69204 16.3926 7.64807 16.5896 7.35357 16.7418C7.17912 16.8319 6.97503 16.8094 6.82579 16.6835C6.67002 16.5521 6.50049 16.0152 6.37162 15.245C6.32212 14.9492 6.26947 14.4958 6.26943 14.3652C6.26943 14.3118 6.26088 14.2712 6.25045 14.2748C6.21909 14.2859 5.99494 14.5528 5.89085 14.7031C5.76576 14.8836 5.60785 15.1812 5.52869 15.3855C5.42172 15.6617 5.40025 15.7045 5.32963 15.7834C5.22966 15.895 5.13385 15.9375 4.9822 15.9375C4.54471 15.9375 4.36515 15.6169 4.52851 15.1275C4.64213 14.7871 4.93276 14.241 5.15283 13.9544C5.37402 13.6663 5.8206 13.2284 6.12197 13.004L6.30493 12.8678L6.32724 12.7417C6.33952 12.6723 6.37376 12.4579 6.40333 12.2653C6.45624 11.9208 6.45658 11.9124 6.4239 11.754C6.33577 11.3268 6.04478 11.0263 5.65194 10.957C5.43135 10.918 5.16414 10.991 4.94964 11.1489C4.8485 11.2233 4.84754 11.225 4.65749 11.6822C4.33069 12.4682 3.74009 13.3712 3.09274 14.0745C2.5814 14.6301 2.24781 14.865 2.02848 14.8237C1.79822 14.7804 1.59678 14.5556 1.59568 14.3407C1.59472 14.1564 1.66616 14.0507 2.08734 13.6139C2.29557 13.3979 2.52781 13.1482 2.60341 13.0589C2.93715 12.6647 3.33592 12.0795 3.27893 12.0675C3.23289 12.0578 2.7946 12.1617 2.5688 12.2358C2.14867 12.3736 1.80758 12.5399 1.38346 12.8138C0.896085 13.1285 0.771933 13.1717 0.591193 13.0894C0.213273 12.9174 0.149375 12.4685 0.464639 12.2003C0.576415 12.1052 0.931348 11.8653 1.10418 11.768C1.15864 11.7374 1.2032 11.7065 1.20322 11.6995C1.20326 11.6779 1.03541 11.6599 0.686269 11.644C0.314576 11.6272 0.238243 11.6042 0.131353 11.4773C-0.0964645 11.2068 -0.0184896 10.8133 0.292129 10.6661C0.385182 10.622 0.41648 10.6187 0.735169 10.6185C1.37779 10.6181 1.92926 10.7595 2.42971 11.053L2.58486 11.144L2.84021 11.0929C2.98064 11.0648 3.2262 11.0272 3.3859 11.0094C3.54559 10.9915 3.71302 10.9727 3.75797 10.9675C3.83613 10.9585 3.84169 10.9531 3.88589 10.8434C3.91128 10.7803 3.97576 10.6511 4.02916 10.5562C4.15598 10.3309 4.21925 10.1854 4.26707 10.0093C4.43305 9.39773 4.28876 8.75188 3.89157 8.32865C3.59934 8.01729 3.16291 7.78959 2.84776 7.78411C2.79314 7.78314 2.66065 7.81221 2.52485 7.85494C1.94392 8.0377 1.48959 8.1088 0.788974 8.12658L0.2846 8.13937L0.188242 8.02341C0.0438864 7.84966 -0.00136867 7.74326 0.00704157 7.59741C0.0193366 7.38459 0.13712 7.21708 0.315758 7.15837C0.368842 7.14091 0.532081 7.11849 0.67852 7.10851C0.824958 7.09855 0.947908 7.08705 0.951773 7.08298C0.955617 7.07888 0.882248 7.00779 0.788714 6.92499C0.567645 6.7293 0.223245 6.35019 0.106162 6.17364C0.0286679 6.05677 0.0124482 6.01551 0.00533952 5.91697C-0.00533348 5.76922 0.0374987 5.65027 0.139183 5.54525C0.293551 5.38579 0.515962 5.33638 0.700827 5.42046C0.7611 5.44786 0.923238 5.59306 1.21145 5.87777C1.65917 6.32002 1.89644 6.51746 2.19465 6.69582L2.37827 6.80566L2.55669 6.77593C2.65481 6.75957 2.87027 6.73653 3.03547 6.72472C4.17812 6.64305 4.51417 6.47864 4.65695 5.9314C4.69523 5.78467 4.73246 5.36036 4.72383 5.16899L4.71752 5.02883L4.54595 4.93579C4.45158 4.88462 4.28628 4.78715 4.17862 4.71915L3.98289 4.59554L3.7626 4.62633C3.28834 4.69265 2.46019 4.71644 2.03425 4.67599C1.70906 4.64512 1.52157 4.54564 1.42138 4.35076C1.29813 4.11105 1.40825 3.8131 1.66903 3.68064C1.76887 3.62992 1.77339 3.62952 2.11233 3.64166C2.30068 3.6484 2.54714 3.65914 2.66001 3.66551C2.77289 3.67189 2.86506 3.66948 2.8648 3.66013C2.86454 3.65079 2.77333 3.53927 2.66212 3.41231C2.41576 3.1311 2.12608 2.72939 2.03185 2.53826C1.89995 2.27073 1.92135 2.06369 2.09695 1.90875C2.26071 1.76427 2.47259 1.72818 2.65501 1.8137C2.77155 1.86834 2.87704 1.97744 3.02304 2.19434C3.28856 2.58876 3.74616 3.09485 4.09056 3.37496C4.40372 3.62966 4.59645 3.7624 4.60336 3.72811C4.61456 3.67251 4.50518 3.28275 4.41337 3.05101C4.31093 2.79252 4.17113 2.50361 4.02434 2.24701C3.97029 2.15255 3.91582 2.02609 3.90331 1.96599C3.81786 1.55583 4.29461 1.22097 4.65911 1.4351C4.76644 1.49815 4.84724 1.60443 5.00231 1.88659C5.36877 2.55339 5.58648 3.20173 5.68131 3.90866C5.69876 4.03863 5.72333 4.21264 5.7359 4.29538L5.75879 4.44582L5.86648 4.51023C5.99978 4.58998 6.27242 4.70542 6.43643 4.75159C6.53536 4.77943 6.63902 4.78607 6.96025 4.78519C7.41114 4.78392 7.54875 4.75875 7.82046 4.62774C8.18505 4.45196 8.60005 4.04765 8.801 3.67245C8.90256 3.48281 8.90749 3.44515 8.8705 3.14133C8.78652 2.45161 8.47258 1.91866 7.98368 1.63584C7.5224 1.36898 7.46841 1.31342 7.45427 1.09082C7.44977 1.01992 7.45724 0.921987 7.47086 0.873211C7.52376 0.683827 7.73554 0.521883 7.93032 0.521883C8.09914 0.521883 8.46567 0.684229 8.71239 0.868293C8.85622 0.9756 9.15411 1.26649 9.25691 1.40005C9.30151 1.458 9.34476 1.50543 9.35301 1.50543C9.37484 1.50543 9.43096 1.04272 9.45287 0.682121ZM8 10C9.38071 10 10.5 9.10457 10.5 8C10.5 6.89543 9.38071 6 8 6C6.61929 6 5.5 6.89543 5.5 8C5.5 9.10457 6.61929 10 8 10Z" fill="#1EA672"/>
</g>
<defs>
<clipPath id="clip0">
<rect width="18" height="18" fill="white"/>
</clipPath>
</defs>
</svg>
