<svg width="18" height="18" viewBox="0 0 18 18" fill="none" xmlns="http://www.w3.org/2000/svg">
<g clip-path="url(#clip0)">
<path d="M7.30229 4.53063L10.429 1.7116C11.7933 0.481511 13.8965 0.590345 15.1266 1.95468C16.3567 3.31902 16.2479 5.42222 14.8835 6.65231L11.7568 9.47134L7.30229 4.53063Z" stroke="#E56F4A" stroke-width="1.5"/>
<path fill-rule="evenodd" clip-rule="evenodd" d="M10.4721 13.3223H10.4932H10.5271H10.561H10.5947H10.6283H10.6619H10.6953H10.7287H10.762H10.7952H10.8283H10.8613H10.8942H10.927H10.9598H10.9924H11.025H11.0574H11.0898H11.1221H11.1543H11.1864H11.2184H11.2503H11.2821H11.3139H11.3455H11.3771H11.4086H11.44H11.4713H11.5025H11.5336H11.5646H11.5956H11.6264H11.6572H11.6879H11.7185H11.749L11.7794 13.3223H11.8097H11.8399H11.8701H11.9001H11.9301H11.96H11.9898H12.0195H12.0491H12.0787H12.1081H12.1375H12.1668H12.196H12.2251H12.2541H12.283H12.3119H12.3406H12.3693H12.3979H12.4264H12.4548H12.4831H12.5114H12.5395H12.5676H12.5956H12.6235H12.6513H12.6791H12.7067H12.7343H12.7618H12.7891H12.8165H12.8437H12.8708H12.8979H12.9249H12.9517H12.9786H13.0053H13.0319H13.0585H13.0849H13.1113H13.1376H13.1638H13.19H13.216H13.242H13.2679H13.2937H13.3194H13.3451H13.3706H13.3961H13.4215H13.4468H13.472H13.4972H13.5223H13.5472H13.5722H13.597H13.6217H13.6464H13.671H13.6955H13.7199H13.7442H13.7685H13.7926H13.8167H13.8407H13.8647H13.8885H13.9123H13.936H13.9596H13.9831H14.0066H14.0299H14.0532H14.0765H14.0996H14.1226H14.1456H14.1685H14.1913H14.2141H14.2367H14.2593H14.2818H14.3042H14.3266H14.3488H14.371H14.3931H14.4152H14.4371H14.459H14.4808H14.5025H14.5242H14.5457H14.5672H14.5886H14.61H14.6312H14.6524H14.6735H14.6945H14.7155H14.7364H14.7571H14.7779H14.7985H14.8191L14.8396 13.3223H14.86H14.8803H14.9006H14.9208H14.9409H14.9609H14.9809H15.0008H15.0206H15.0403H15.06H15.0796H15.0991H15.1185H15.1379H15.1572H15.1764H15.1955H15.2146H15.2336H15.2525H15.2713H15.2901H15.3088H15.3274H15.346H15.3645H15.3829H15.4012H15.4194H15.4376H15.4557H15.4738H15.4917H15.5096H15.5275H15.5452H15.5629H15.5805H15.598H15.6155H15.6329H15.6502H15.6674H15.6846H15.7017H15.7187H15.7357H15.7525H15.7694H15.7861H15.8028H15.8194H15.8359H15.8524H15.8688H15.8851H15.9013H15.9175H15.9336H15.9497H15.9656H15.9815H15.9974H16.0131H16.0288H16.0444H16.06H16.0755H16.0909H16.1062H16.1215H16.1367H16.1518H16.1669H16.1819H16.1968H16.2117H16.2265H16.2412H16.2559H16.2705H16.285H16.2995H16.3138H16.3282H16.3424H16.3566H16.3707H16.3848H16.3988H16.4127H16.4265H16.4403H16.454H16.4677H16.4813H16.4948H16.5082H16.5216H16.5349H16.5482H16.5614H16.5745H16.5875H16.6005H16.6135H16.6263H16.6391H16.6518H16.6645H16.6771H16.6896H16.7021H16.7145H16.7268H16.7391H16.7513H16.7635H16.7756H16.7876H16.7995H16.8114H16.8232H16.835H16.8467H16.8583H16.8699H16.8814H16.8929H16.9042H16.9156H16.9268H16.938H16.9491H16.9602H16.9712H16.9822H16.993H17.0039H17.0146H17.0253H17.0359H17.0465H17.057H17.0675H17.0779H17.0882H17.0984H17.1086H17.1188H17.1289H17.1389H17.1488H17.1587H17.1686H17.1784H17.1881H17.1977H17.2073H17.2169H17.2263H17.2357H17.2451H17.2544H17.2636H17.2728H17.2819H17.291H17.3H17.3089H17.3178H17.3266H17.3354H17.3441H17.3527H17.3613H17.3698H17.3783H17.3867H17.3951H17.4034H17.4116H17.4198H17.4279H17.436H17.444H17.4519H17.4598H17.4677H17.4754H17.4831H17.4908H17.4984H17.506H17.5135H17.5209H17.5283H17.5356H17.5429H17.5501H17.5572H17.5643H17.5714H17.5783H17.5853H17.5922H17.599H17.6057H17.6124H17.6191H17.6257H17.6322H17.6387H17.6452H17.6515H17.6579H17.6641H17.6704H17.6765H17.6826H17.6887H17.6947H17.7006H17.7065H17.7123H17.7181H17.7239H17.7295H17.7352H17.7407H17.7463H17.7517H17.7571H17.7625H17.7678H17.773H17.7782H17.7834H17.7885H17.7935H17.7985H17.8035H17.8084H17.8132H17.818H17.8227H17.8274H17.832H17.8366H17.8411H17.8456H17.85H17.8544H17.8587H17.863H17.8672H17.8714H17.8755H17.8796H17.8836H17.8876H17.8915H17.8953H17.8992L17.9029 13.3223H17.9067H17.9103H17.9139H17.9175H17.921H17.9245H17.9279H17.9313H17.9346H17.9379H17.9411H17.9443H17.9475H17.9505H17.9536H17.9566H17.9595H17.9624H17.9652H17.968H17.9705C17.7497 11.4716 16.3191 9.99235 14.4919 9.69805L10.4721 13.3223ZM17.968 14.3223H17.9705C17.7234 16.3938 15.9605 17.9999 13.8225 17.9999C11.6844 17.9999 9.92154 16.3938 9.67447 14.3223H9.68749H9.72355H9.75951H9.79538H9.83116H9.86684H9.90243H9.93793H9.97333H10.0086H10.0439H10.079H10.114H10.1489H10.1838H10.2185L10.2532 14.3223H10.2878H10.3222H10.3566H10.3909H10.4251H10.4592H10.4932H10.5271H10.561H10.5947H10.6283H10.6619H10.6953H10.7287H10.762H10.7952H10.8283H10.8613H10.8942H10.927H10.9598H10.9924H11.025H11.0574H11.0898H11.1221H11.1543H11.1864H11.2184H11.2503H11.2821H11.3139H11.3455H11.3771H11.4086H11.44H11.4713H11.5025H11.5336H11.5646H11.5956H11.6264H11.6572H11.6879H11.7185H11.749H11.7794H11.8097H11.8399H11.8701H11.9001H11.9301H11.96H11.9898H12.0195H12.0491H12.0787H12.1081H12.1375H12.1668H12.196H12.2251H12.2541H12.283H12.3119H12.3406H12.3693H12.3979H12.4264H12.4548H12.4831H12.5114H12.5395H12.5676H12.5956H12.6235H12.6513H12.6791H12.7067H12.7343H12.7618H12.7891H12.8165H12.8437H12.8708H12.8979H12.9249H12.9517H12.9786H13.0053H13.0319H13.0585H13.0849H13.1113H13.1376H13.1638H13.19H13.216H13.242H13.2679H13.2937H13.3194H13.3451H13.3706H13.3961H13.4215H13.4468H13.472H13.4972H13.5223H13.5472H13.5722H13.597H13.6217H13.6464H13.671H13.6955H13.7199H13.7442H13.7685H13.7926H13.8167H13.8407H13.8647H13.8885H13.9123H13.936H13.9596H13.9831H14.0066H14.0299H14.0532H14.0765H14.0996H14.1226H14.1456H14.1685H14.1913H14.2141H14.2367H14.2593H14.2818H14.3042H14.3266H14.3488H14.371H14.3931H14.4152H14.4371H14.459H14.4808H14.5025H14.5242H14.5457H14.5672H14.5886H14.61H14.6312H14.6524H14.6735H14.6945H14.7155H14.7364H14.7571H14.7779H14.7985H14.8191H14.8396H14.86H14.8803H14.9006H14.9208H14.9409H14.9609H14.9809H15.0008H15.0206H15.0403H15.06H15.0796H15.0991H15.1185H15.1379H15.1572H15.1764H15.1955H15.2146H15.2336H15.2525H15.2713H15.2901H15.3088H15.3274H15.346H15.3645H15.3829H15.4012H15.4194H15.4376H15.4557H15.4738H15.4917H15.5096H15.5275H15.5452H15.5629H15.5805H15.598H15.6155H15.6329H15.6502H15.6674H15.6846H15.7017H15.7187H15.7357H15.7525H15.7694H15.7861H15.8028H15.8194H15.8359H15.8524H15.8688H15.8851H15.9013H15.9175H15.9336H15.9497H15.9656H15.9815H15.9974H16.0131H16.0288H16.0444H16.06H16.0755H16.0909H16.1062H16.1215H16.1367H16.1518H16.1669H16.1819H16.1968H16.2117H16.2265H16.2412H16.2559H16.2705H16.285H16.2995H16.3138H16.3282H16.3424H16.3566L16.3707 14.3223H16.3848H16.3988H16.4127H16.4265H16.4403H16.454H16.4677H16.4813H16.4948H16.5082H16.5216H16.5349H16.5482H16.5614H16.5745H16.5875H16.6005H16.6135H16.6263H16.6391H16.6518H16.6645H16.6771H16.6896H16.7021H16.7145H16.7268H16.7391H16.7513H16.7635H16.7756H16.7876H16.7995H16.8114H16.8232H16.835H16.8467H16.8583H16.8699H16.8814H16.8929H16.9042H16.9156H16.9268H16.938H16.9491H16.9602H16.9712H16.9822H16.993H17.0039H17.0146H17.0253H17.0359H17.0465H17.057H17.0675H17.0779H17.0882H17.0984H17.1086H17.1188H17.1289H17.1389H17.1488H17.1587H17.1686H17.1784H17.1881H17.1977H17.2073H17.2169H17.2263H17.2357H17.2451H17.2544H17.2636H17.2728H17.2819H17.291H17.3H17.3089H17.3178H17.3266H17.3354H17.3441H17.3527H17.3613H17.3698H17.3783H17.3867H17.3951H17.4034H17.4116H17.4198H17.4279H17.436H17.444H17.4519H17.4598H17.4677H17.4754H17.4831H17.4908H17.4984H17.506H17.5135H17.5209H17.5283H17.5356H17.5429H17.5501H17.5572H17.5643H17.5714H17.5783H17.5853H17.5922H17.599H17.6057H17.6124H17.6191H17.6257H17.6322H17.6387H17.6452H17.6515H17.6579H17.6641H17.6704H17.6765H17.6826H17.6887H17.6947H17.7006H17.7065H17.7123H17.7181H17.7239H17.7295H17.7352H17.7407H17.7463H17.7517H17.7571H17.7625H17.7678H17.773H17.7782H17.7834H17.7885H17.7935H17.7985H17.8035H17.8084H17.8132H17.818H17.8227H17.8274H17.832H17.8366H17.8411H17.8456H17.85H17.8544H17.8587H17.863H17.8672H17.8714H17.8755H17.8796H17.8836H17.8876H17.8915H17.8953H17.8992H17.9029H17.9067H17.9103H17.9139H17.9175H17.921H17.9245H17.9279H17.9313H17.9346H17.9379H17.9411H17.9443H17.9475H17.9505H17.9536H17.9566H17.9595H17.9624H17.9652H17.968Z" fill="#E56F4A"/>
<path d="M1.7115 14.0497C0.481413 12.6853 0.590246 10.5821 1.95459 9.35203L5.12947 6.48957L9.584 11.4303L6.40912 14.2927C5.04478 15.5228 2.94159 15.414 1.7115 14.0497Z" fill="#E56F4A" stroke="#E56F4A" stroke-width="1.5"/>
</g>
<defs>
<clipPath id="clip0">
<rect width="18" height="18" fill="white"/>
</clipPath>
</defs>
</svg>
