<svg width="18" height="18" viewBox="0 0 18 18" fill="none" xmlns="http://www.w3.org/2000/svg">
<g clip-path="url(#clip0)">
<path fill-rule="evenodd" clip-rule="evenodd" d="M3.16298 11.8969C3.35591 12.3082 3.59047 12.6913 3.85807 13.046L2.99333 15.2592C2.92127 15.463 2.99333 15.6945 3.1915 15.8056L6.18204 17.5836C6.38021 17.6947 6.6054 17.6484 6.73151 17.4725L8.15472 15.6111C8.42495 15.6482 8.70418 15.6667 9.00144 15.6667C9.28968 15.6667 9.57793 15.6482 9.84816 15.6019L11.2714 17.4817C11.3975 17.6484 11.6407 17.6947 11.8208 17.5929L14.8114 15.8149C15.0095 15.7037 15.0726 15.4722 15.0095 15.2685L14.1448 13.0553C14.4871 12.5923 14.7753 12.1015 14.9915 11.5551L17.2795 11.2217C17.4957 11.1847 17.6488 10.9995 17.6488 10.7772L17.6488 7.22123C17.6488 6.99898 17.4957 6.82303 17.2795 6.78599L14.9915 6.45262C14.7753 5.90626 14.4781 5.4062 14.1448 4.95244L15.0095 2.73921C15.0816 2.53548 15.0095 2.30397 14.8114 2.19284L11.8208 0.424112C11.6317 0.312986 11.3975 0.350028 11.2714 0.535237L9.84815 2.41509C9.57792 2.36879 9.28067 2.33175 9.00143 2.33175C8.7222 2.33175 8.42494 2.35027 8.15472 2.39657L6.73151 0.516717C6.6054 0.35003 6.36219 0.303728 6.18204 0.405592L3.1915 2.18359C2.99333 2.29471 2.93028 2.52622 2.99333 2.72995L3.85807 4.94318C3.56888 5.33436 3.31827 5.74538 3.1171 6.19297L4.78761 6.19297C6.25463 3.98541 9.20537 3.27116 11.5327 4.61484C13.954 6.01281 14.7837 9.10899 13.3857 11.5303C11.9877 13.9517 8.89155 14.7813 6.47019 13.3834C5.80537 12.9995 5.26054 12.4877 4.84887 11.8969L3.16298 11.8969Z" fill="#8792A2"/>
<path d="M9.43788 12.7728L12.7922 9.41849C13.0327 9.17804 13.0327 8.80533 12.7922 8.56487L9.43788 5.21052C9.06517 4.82579 8.41594 5.10232 8.41594 5.63132L8.41594 7.7834L1.20228 7.7834C0.541025 7.7834 -9.19023e-08 8.32442 -7.87551e-08 8.98567C-6.56078e-08 9.64692 0.541025 10.1879 1.20228 10.1879L8.41594 10.1879L8.41594 12.34C8.41594 12.8811 9.06517 13.1456 9.43788 12.7728Z" fill="#8792A2"/>
</g>
<defs>
<clipPath id="clip0">
<rect width="18" height="18" fill="white"/>
</clipPath>
</defs>
</svg>
