<svg width="18" height="18" viewBox="0 0 18 18" fill="none" xmlns="http://www.w3.org/2000/svg">
<g clip-path="url(#clip0)">
<path fill-rule="evenodd" clip-rule="evenodd" d="M10.5626 3.13372L12.4637 1.74218C13.0823 1.28305 13.5647 0.761042 13.911 0.203844C13.9595 0.125658 14.0054 0.0467801 14.0487 -0.0327148L12.4637 -0.0327148C12.4065 0.0472486 12.3457 0.126147 12.2812 0.203844C12.1978 0.304366 12.1083 0.402878 12.0126 0.499083H6.05827C5.89877 0.338662 5.75631 0.171837 5.63088 -2.47806e-05L4.04037 -2.50377e-05C4.39125 0.633161 4.913 1.22644 5.60564 1.74094L7.00922 2.94461L8.10722 2.19598L7.39542 1.61574H10.5993L9.68385 2.29513L9.47204 2.45233L8.53636 3.09852L5.60645 5.27392C2.79785 7.35925 2.79785 10.7402 5.60645 12.8256L7.25876 14.0744L8.26676 13.28L7.50156 12.7167H10.6733L9.1277 13.8643L8.53835 14.2861L8.53761 14.284L8.37257 14.4048L8.06712 14.6234L8.06879 14.6271L7.5083 15.0374L5.60724 16.4289C4.98859 16.8881 4.50615 17.4101 4.15994 17.9673H5.78967C5.92747 17.8012 6.082 17.6406 6.25326 17.4869H11.8177C11.9889 17.6406 12.1434 17.8012 12.2812 17.9673H13.9108C13.5649 17.4107 13.083 16.8891 12.4653 16.4302L11.0617 15.2265L9.96367 15.9752L10.4483 16.3702H7.72112L8.38704 15.876L8.59884 15.7188L9.53453 15.0726L12.4644 12.8972C15.273 10.8119 15.273 7.43089 12.4644 5.34557L10.9021 4.19236L9.80414 4.89109L10.1198 5.12348H7.84324L8.94319 4.30678L9.53254 3.885L9.53329 3.88716L9.6983 3.76637L10.0038 3.54775L10.0021 3.544L10.5626 3.13372ZM6.35759 6.24014C6.03154 6.51687 5.76166 6.81738 5.54797 7.13349H12.4733C12.2487 6.81631 11.9665 6.5157 11.627 6.24014H6.35759ZM4.99065 8.47348C4.93666 8.76959 4.92449 9.06909 4.95414 9.36673H13.1231C13.146 9.06867 13.1271 8.76916 13.0664 8.47348H4.99065ZM5.38717 10.7067C5.56418 11.0194 5.79355 11.3197 6.07528 11.6001H12.066C12.3366 11.3188 12.5556 11.0186 12.7232 10.7067H5.38717Z" fill="#0E6245"/>
</g>
<defs>
<clipPath id="clip0">
<rect width="18" height="18" fill="white"/>
</clipPath>
</defs>
</svg>
