<svg width="18" height="18" viewBox="0 0 18 18" fill="none" xmlns="http://www.w3.org/2000/svg">
<g clip-path="url(#clip0)">
<path fill-rule="evenodd" clip-rule="evenodd" d="M19.45 20.6586C19.9661 20.2714 20.25 19.8488 20.25 19.4062C20.25 18.9637 19.9661 18.5411 19.45 18.1539L18.5104 19.4062L18.1214 18.8878C18.1331 18.8655 18.1444 18.8465 18.1545 18.8308C18.1751 18.799 18.1887 18.784 18.1887 18.784C18.1887 18.784 18.1643 18.8104 18.0997 18.8589L18.1214 18.8878C18.0658 18.9934 18 19.1718 18 19.4062C18 19.6407 18.0658 19.8191 18.1214 19.9247L18.0997 19.9536C18.1643 20.0021 18.1887 20.0285 18.1887 20.0285C18.1887 20.0285 18.1751 20.0135 18.1545 19.9817C18.1444 19.966 18.1331 19.947 18.1214 19.9247L18.5104 19.4062L19.45 20.6586ZM18.5667 17.6295L17.7075 19.4063L18.5667 21.183C17.8021 21.5527 16.8059 21.8749 15.6389 22.1312L15.1562 19.9336C15.8895 19.7725 16.5055 19.5915 16.9996 19.4062C16.5055 19.221 15.8895 19.04 15.1562 18.8789L15.6389 16.6813C16.8059 16.9376 17.8021 17.2598 18.5667 17.6295ZM14.6306 16.4837L14.2454 18.7005C13.3849 18.551 12.4323 18.4357 11.4118 18.3641L11.5691 16.1197C12.6591 16.196 13.6881 16.32 14.6306 16.4837ZM10.5424 16.0627L10.45 18.3108C9.97668 18.2913 9.4926 18.2812 9 18.2812C8.5074 18.2812 8.02332 18.2913 7.55004 18.3108L7.45756 16.0627C7.96183 16.042 8.47674 16.0312 9 16.0312C9.52326 16.0312 10.0382 16.042 10.5424 16.0627ZM6.4309 16.1197L6.58819 18.3641C5.56767 18.4357 4.61509 18.551 3.75462 18.7005L3.36941 16.4837C4.3119 16.32 5.34093 16.196 6.4309 16.1197ZM2.36109 16.6813L2.84378 18.8789C2.11053 19.04 1.49454 19.221 1.00039 19.4062C1.49454 19.5915 2.11053 19.7725 2.84378 19.9336L2.36109 22.1312C1.19412 21.8749 0.197926 21.5527 -0.566718 21.183L0.292462 19.4062L-0.566717 17.6295C0.197926 17.2598 1.19412 16.9376 2.36109 16.6813ZM-1.45003 20.6586L-0.510367 19.4062L-0.121377 19.9247C-0.133121 19.947 -0.144412 19.966 -0.154536 19.9817C-0.175144 20.0135 -0.18872 20.0285 -0.18872 20.0285C-0.18872 20.0285 -0.164265 20.0021 -0.0996704 19.9536L-0.121377 19.9247C-0.0657599 19.8191 0 19.6407 0 19.4062C0 19.1718 -0.0657599 18.9934 -0.121377 18.8878L-0.0996704 18.8589C-0.164265 18.8104 -0.18872 18.784 -0.18872 18.784C-0.18872 18.784 -0.175144 18.799 -0.154536 18.8308C-0.144412 18.8465 -0.133121 18.8655 -0.121377 18.8878L-0.510367 19.4062L-1.45003 18.1539C-1.96612 18.5411 -2.25 18.9637 -2.25 19.4062C-2.25 19.8488 -1.96612 20.2714 -1.45003 20.6586ZM3.36941 22.3288L3.75462 20.112C4.61509 20.2615 5.56767 20.3768 6.58819 20.4484L6.4309 22.6928C5.34093 22.6165 4.3119 22.4925 3.36941 22.3288ZM7.45756 22.7498L7.55004 20.5017C8.02332 20.5212 8.5074 20.5312 9 20.5312C9.4926 20.5312 9.97668 20.5212 10.45 20.5017L10.5424 22.7498C10.0382 22.7705 9.52326 22.7812 9 22.7812C8.47674 22.7812 7.96183 22.7705 7.45756 22.7498ZM11.5691 22.6928L11.4118 20.4484C12.4323 20.3768 13.3849 20.2615 14.2454 20.112L14.6306 22.3288C13.6881 22.4925 12.6591 22.6165 11.5691 22.6928Z" fill="#9F7DEC"/>
<path fill-rule="evenodd" clip-rule="evenodd" d="M21.4371 -12.0909C19.8572 -13.1601 17.674 -12.7142 16.6458 -11.1123L7.26732 3.4992C6.99353 3.92575 7.09901 4.41962 7.40889 4.72163L7.28666 4.90748L7.27341 4.90958L3.03194 11.335C0.43851 15.2176 -0.115214 16.1091 0.0660139 16.1104C0.429632 16.113 2.48339 15.5355 3.4199 15.1674C4.4675 14.7557 6.19875 13.827 7.02857 13.2317C8.32377 12.3024 9.19222 10.8046 9.19222 10.8046C9.28684 10.6393 9.39416 10.4556 9.50742 10.2616C10.1031 9.24163 10.8631 7.94031 10.8033 7.56303L10.1727 5.07972L10.4598 4.64321L14.9528 3.9316C15.4782 3.84837 15.9375 3.53455 16.199 3.08004L22.4413 -7.77128C23.2961 -9.25732 22.8615 -11.1268 21.4371 -12.0909ZM8.51933 6.67233C8.66872 6.44009 8.60156 6.13072 8.36931 5.98133C8.13707 5.83194 7.82769 5.8991 7.6783 6.13135L5.61224 9.34328C5.46285 9.57552 5.53001 9.88489 5.76226 10.0343C5.9945 10.1837 6.30388 10.1165 6.45327 9.88426L8.51933 6.67233Z" fill="#9F7DEC"/>
</g>
<defs>
<clipPath id="clip0">
<rect width="18" height="18" fill="white"/>
</clipPath>
</defs>
</svg>
