<svg width="18" height="18" viewBox="0 0 18 18" fill="none" xmlns="http://www.w3.org/2000/svg">
<path fill-rule="evenodd" clip-rule="evenodd" d="M2.95001 2.67847H8.19027C8.31159 3.02184 8.63904 3.26786 9.02395 3.26786C9.40885 3.26786 9.7363 3.02184 9.85762 2.67847H15.0929C15.6452 2.67847 16.0929 3.12618 16.0929 3.67847V16.9999C16.0929 17.5522 15.6452 17.9999 15.0929 17.9999H2.95001C2.39773 17.9999 1.95001 17.5522 1.95001 16.9999V3.67847C1.95001 3.12618 2.39773 2.67847 2.95001 2.67847ZM9.90545 7.98217H8.13759V10.634H5.48581V12.4019H8.13759V15.0536H9.90545V12.4019H12.5573V10.634H9.90545V7.98217ZM6.48578 3.85718C5.93349 3.85718 5.48578 4.30489 5.48578 4.85718V5.03575H12.5572V4.85718C12.5572 4.30489 12.1095 3.85718 11.5572 3.85718H6.48578Z" fill="#6C8EEF"/>
<path fill-rule="evenodd" clip-rule="evenodd" d="M10.9394 3.80005C11.2322 3.40409 11.4054 2.91423 11.4054 2.38393C11.4054 1.06732 10.3381 0 9.02144 0C7.70483 0 6.63751 1.06732 6.63751 2.38393C6.63751 2.91423 6.81066 3.40409 7.10351 3.80005H10.9394ZM9.90537 2.38393C9.90537 2.87211 9.50962 3.26786 9.02144 3.26786C8.53326 3.26786 8.13751 2.87211 8.13751 2.38393C8.13751 1.89575 8.53326 1.5 9.02144 1.5C9.50962 1.5 9.90537 1.89575 9.90537 2.38393Z" fill="#6C8EEF"/>
</svg>
