<svg width="18" height="18" viewBox="0 0 18 18" fill="none" xmlns="http://www.w3.org/2000/svg">
<path fill-rule="evenodd" clip-rule="evenodd" d="M2.51852 1.99995C2.23215 1.99995 2 2.23936 2 2.53468V10.6091H3.0764L3.30505 10.4906C3.43082 10.4254 3.66203 10.2193 3.81895 10.0327C4.23374 9.53906 4.513 9.35307 4.83943 9.35307C5.21686 9.35307 5.30999 9.39326 5.51483 9.64446L5.69672 9.8675L5.95222 8.49822C6.69088 4.54021 6.84679 3.80321 6.96744 3.69954C7.12396 3.56499 7.49528 3.56363 7.6666 3.69687C7.68346 3.70998 7.69816 3.71928 7.71152 3.7303C7.82317 3.82239 7.84144 4.03487 8.24652 7.59993C8.44926 9.38447 8.62463 10.8799 8.6362 10.923C8.64784 10.9662 8.69649 10.8602 8.74434 10.6876C8.79225 10.5149 8.87199 10.3121 8.92151 10.237C9.03073 10.0714 9.33233 9.96604 9.62915 9.9897L9.84845 10.0072L10.2441 8.96058C10.6631 7.85223 10.7847 7.67843 11.1414 7.67843C11.4013 7.67843 11.5554 7.84815 11.7453 8.34326C12.39 10.0244 12.5915 10.4611 12.7061 10.4258C13.0362 10.3243 13.2692 10.3372 13.6785 10.4802L14.0984 10.6268L16 10.6324V2.53468C16 2.23936 15.7679 1.99995 15.4815 1.99995H2.51852ZM16 11.4219L13.8966 11.4169L13.5639 11.2992C13.2492 11.188 13.2276 11.1866 13.1646 11.2748C13.0335 11.4583 12.7265 11.6557 12.5727 11.6555C12.4866 11.6554 12.3214 11.6104 12.2056 11.5555C11.9728 11.4451 11.8385 11.2073 11.3969 10.1244C11.2588 9.78586 11.1256 9.52682 11.1009 9.54874C11.0761 9.57062 10.9436 9.88294 10.8062 10.2427C10.6636 10.6164 10.4958 10.9474 10.4148 11.0146C10.2632 11.1405 10.0313 11.1657 9.82268 11.0789C9.71602 11.0345 9.6883 11.0457 9.65963 11.1443C9.58568 11.3987 9.35184 12.5651 9.18456 13.5135C9.08712 14.0663 8.96593 14.5597 8.91176 14.6247C8.71776 14.8576 8.20587 14.8262 8.08266 14.5739C8.0509 14.5088 7.8536 12.9483 7.64433 11.1062C7.43505 9.26411 7.24186 7.68869 7.21508 7.60527C7.18082 7.49883 7.05984 8.02116 6.80877 9.35841C6.41539 11.4546 6.39776 11.4987 5.95491 11.4987C5.68541 11.4987 5.60608 11.4288 5.1561 10.7955L4.79098 10.2816L4.67544 10.4554C4.45957 10.7801 3.9141 11.1742 3.52314 11.288C3.25792 11.3651 3.09126 11.3864 2 11.392V15.4652C2 15.7606 2.23215 16 2.51852 16H15.4815C15.7679 16 16 15.7606 16 15.4652V11.4219Z" fill="#C96ED0"/>
<path fill-rule="evenodd" clip-rule="evenodd" d="M1.52113 0H16.4789C17.319 0 18 0.671573 18 1.5V16.5C18 17.3284 17.319 18 16.4789 18H1.52113C0.681032 18 0 17.3284 0 16.5V1.5C0 0.671573 0.681032 0 1.52113 0ZM1.52113 1C1.2411 1 1.01408 1.22386 1.01408 1.5V16.5C1.01408 16.7761 1.2411 17 1.52113 17H16.4789C16.7589 17 16.9859 16.7761 16.9859 16.5V1.5C16.9859 1.22386 16.7589 1 16.4789 1H1.52113Z" fill="#C96ED0"/>
</svg>
