<svg width="18" height="18" viewBox="0 0 18 18" fill="none" xmlns="http://www.w3.org/2000/svg">
<path fill-rule="evenodd" clip-rule="evenodd" d="M2.83152 0.236495C2.54196 0.522729 2.51695 1.75787 2.7865 2.45871C2.9598 2.90933 2.88335 3.06283 2.10232 3.83489C1.36551 4.56343 1.12057 5.01939 0.588672 6.65391C-0.220981 9.14139 -0.195766 10.6701 0.666315 11.4032C1.33169 11.9689 2.14154 11.9964 3.20353 11.4892C3.99538 11.111 3.99678 11.111 4.2231 11.5292C4.38599 11.8301 4.3882 11.9681 4.23051 12.0201C3.4979 12.2615 2.69145 13.0149 2.69145 13.4582C2.69145 13.9047 2.76569 13.9439 3.59195 13.9338C4.08723 13.9276 4.63193 13.8582 4.80243 13.7795C5.02955 13.6746 5.23667 13.8549 5.57766 14.4544C5.8334 14.9044 6.31047 15.574 6.63805 15.9428C7.33384 16.7261 7.29002 16.7562 5.2929 16.8642C3.81588 16.9443 2.27561 17.4572 2.48873 17.798C2.56838 17.9252 4.19989 18 6.8982 18C10.768 18 11.2929 17.9594 12.3392 17.5798C15.124 16.5694 18 12.0552 18 8.69453C18 7.22361 17.2664 4.94224 16.3259 3.48892C15.5644 2.31233 13.9603 0.838239 13.2493 0.661791C12.4893 0.473276 12.2712 0.881758 12.9022 1.312C14.8917 2.66919 16.194 4.44475 16.841 6.68259C17.3058 8.2906 17.2254 9.76648 16.5964 11.1755C16.0917 12.3062 16.0059 12.2203 15.6263 10.204C15.3535 8.75566 14.4622 6.83827 13.6216 5.89174C12.8883 5.06647 11.3487 4.04497 10.5396 3.84755C10.0748 3.73401 10.0087 3.64222 10.1382 3.28952C10.898 1.22002 9.14806 -0.340522 7.39107 0.839822C7.02667 1.08451 6.5474 1.63186 6.32588 2.05597L5.92325 2.82704L5.6477 1.85816C5.49621 1.32525 5.14682 0.688891 4.87126 0.444198C4.32236 -0.0434083 3.22735 -0.154777 2.83152 0.236495ZM9.15046 1.49399C9.72017 1.88842 9.74379 2.92397 9.19888 3.60899C8.98076 3.88296 8.42165 4.25781 7.95639 4.44178C7.15554 4.75867 7.09691 4.75788 6.85217 4.42694C6.70989 4.23487 6.59363 3.94468 6.59363 3.78227C6.59363 3.19299 7.4463 1.76479 7.96419 1.48667C8.63477 1.12665 8.61996 1.12665 9.15046 1.49399ZM5.02635 7.01551C5.30571 7.6216 4.97052 8.10941 4.27493 8.10941C3.62037 8.10941 3.3246 7.50094 3.71282 6.9532C4.11844 6.38073 4.7476 6.4106 5.02635 7.01551Z" fill="#3A97D4"/>
</svg>
