<svg width="12" height="16" viewBox="0 0 12 16" fill="none" xmlns="http://www.w3.org/2000/svg">
<path d="M7.29 4.63L7.29 15.11C7.30123 15.3165 7.23766 15.5202 7.11093 15.6836C6.9842 15.8471 6.80281 15.9594 6.6 16L6.48 16L5.48 16C5.27613 15.9857 5.08447 15.8976 4.94089 15.7522C4.79731 15.6068 4.71166 15.414 4.7 15.21C4.7 14.75 4.7 14.29 4.7 13.83C4.7 13.37 4.7 13.03 4.7 12.64C4.7 12.25 4.7 11.89 4.7 11.52C4.7 11.15 4.7 10.78 4.7 10.42C4.7 10.06 4.7 9.85 4.7 9.56C4.7 9.27 4.7 8.7 4.7 8.27C4.7 7.84 4.7 7.65 4.7 7.34C4.7 6.86 4.7 6.34 4.7 5.89C4.7 5.44 4.7 5.1 4.7 4.7C4.70399 4.67013 4.70399 4.63987 4.7 4.61L4.61 4.69L2.43 6.88C2.34934 6.96986 2.25067 7.04172 2.1404 7.09092C2.03013 7.14012 1.91074 7.16554 1.79 7.16554C1.66925 7.16554 1.54986 7.14012 1.43959 7.09092C1.32932 7.04172 1.23065 6.96986 1.15 6.88L0.559997 6.3C0.400611 6.13898 0.311205 5.92156 0.311205 5.695C0.311205 5.46843 0.400611 5.25102 0.559998 5.09L1.56 4.09C2.09 3.57 2.61 3.09 3.14 2.51L4.4 1.25L5.4 0.249999C5.47885 0.15894 5.57637 0.0859055 5.68593 0.035849C5.79549 -0.0142065 5.91454 -0.040114 6.035 -0.0401139C6.15545 -0.0401139 6.2745 -0.0142064 6.38406 0.0358491C6.49363 0.0859056 6.59114 0.15894 6.67 0.25L11.47 5.04C11.5519 5.1201 11.617 5.21576 11.6615 5.32137C11.706 5.42698 11.7289 5.54041 11.7289 5.655C11.7289 5.76959 11.706 5.88302 11.6615 5.98863C11.617 6.09424 11.5519 6.1899 11.47 6.27L10.83 6.91C10.6726 7.05692 10.4653 7.13863 10.25 7.13863C10.0347 7.13863 9.8274 7.05692 9.67 6.91L7.41 4.7C7.38338 4.66909 7.35993 4.63559 7.34 4.6L7.29 4.63Z" fill="currentColor"/>
</svg>
