<?xml version="1.0" encoding="utf-8"?>
<!-- Generator: Adobe Illustrator 25.2.0, SVG Export Plug-In . SVG Version: 6.00 Build 0)  -->
<svg version="1.1" id="Layer_1" xmlns="http://www.w3.org/2000/svg" xmlns:xlink="http://www.w3.org/1999/xlink" x="0px" y="0px"
	 viewBox="0 0 30 30" style="enable-background:new 0 0 30 30;" xml:space="preserve">
<style type="text/css">
	.st0{fill-rule:evenodd;clip-rule:evenodd;fill:#C1C9D2;}
	.st1{fill:#E3E8EE;}
</style>
<g>
	<path class="st0" d="M21.4,27.5c-0.9,0.8-1.8,1.4-2.8,1.8c-2.3,0.9-4.9,0.9-7.2,0c-1-0.4-1.9-1-2.8-1.8c-0.9-0.8-1.9-1.7-3.1-3
		l-0.1-0.1c-1.2-1.2-2.2-2.2-3-3.1c-0.8-0.9-1.4-1.8-1.8-2.8c-0.9-2.3-0.9-4.9,0-7.2c0.4-1,1-1.9,1.8-2.8c0.8-0.9,1.7-1.9,3-3.1
		l0.1-0.1c1.2-1.2,2.2-2.2,3.1-3c0.9-0.8,1.8-1.4,2.8-1.8c2.3-0.9,4.9-0.9,7.2,0c1,0.4,1.9,1,2.8,1.8c0.9,0.8,1.9,1.7,3.1,3l0.1,0.1
		c1.2,1.2,2.2,2.2,3,3.1c0.8,0.9,1.4,1.8,1.8,2.8c0.9,2.3,0.9,4.9,0,7.2c-0.4,1-1,1.9-1.8,2.8c-0.8,0.9-1.7,1.9-3,3.1l-0.1,0.1
		C23.2,25.8,22.2,26.8,21.4,27.5z M2.5,17.9c0.6,1.4,1.8,2.7,4.4,5.2c2.5,2.5,3.8,3.8,5.2,4.4c1.8,0.7,3.9,0.7,5.7,0
		c1.4-0.6,2.7-1.8,5.2-4.4s3.8-3.8,4.4-5.2c0.7-1.8,0.7-3.9,0-5.7c-0.6-1.4-1.8-2.7-4.4-5.2c-2.5-2.5-3.8-3.8-5.2-4.4
		c-1.8-0.7-3.9-0.7-5.7,0c-1.4,0.6-2.7,1.8-5.2,4.4c-2.5,2.5-3.8,3.8-4.4,5.2C1.8,14,1.8,16,2.5,17.9z"/>
</g>
<g>
	<path class="st1" d="M21.4,27.5c-0.9,0.8-1.7,1.4-2.7,1.8c-2.3,0.9-4.9,0.9-7.2,0c-1-0.4-1.9-1-2.7-1.8c-0.9-0.8-1.9-1.7-3.1-3h0
		l-0.1-0.1l0,0c-1.2-1.2-2.2-2.2-3-3.1c-0.8-0.9-1.4-1.7-1.8-2.7c-0.9-2.3-0.9-4.9,0-7.2c0.4-1,1-1.9,1.8-2.7c0.8-0.9,1.7-1.9,3-3.1
		l0,0l0.1-0.1l0,0c1.2-1.2,2.2-2.2,3.1-3c0.9-0.8,1.7-1.4,2.7-1.8c2.3-0.9,4.9-0.9,7.2,0c1,0.4,1.9,1,2.7,1.8c0.9,0.8,1.9,1.7,3.1,3
		v0l0.1,0.1v0c1.2,1.2,2.2,2.2,3,3.1c0.8,0.9,1.4,1.7,1.8,2.7c0.9,2.3,0.9,4.9,0,7.2c-0.4,1-1,1.9-1.8,2.7c-0.8,0.9-1.7,1.9-3,3.1
		l0,0l-0.1,0.1v0C23.2,25.8,22.2,26.7,21.4,27.5z"/>
</g>
</svg>
