<svg width="9" height="16" viewBox="0 0 9 16" fill="none" xmlns="http://www.w3.org/2000/svg">
<path fill-rule="evenodd" clip-rule="evenodd" d="M8.67558 15.7242C8.49883 15.9008 8.2592 16 8.00935 16C7.75951 16 7.51988 15.9008 7.34313 15.7242L0.276044 8.66567C0.188539 8.57834 0.119116 8.47462 0.0717483 8.36043C0.0243809 8.24624 0 8.12384 0 8.00021C0 7.87659 0.0243809 7.75418 0.0717483 7.64C0.119116 7.52581 0.188539 7.42208 0.276044 7.33476L7.34313 0.276195C7.51961 0.0995001 7.75905 0.00015015 8.00879 1.70053e-07C8.25852 -0.00014981 8.49809 0.0989128 8.67478 0.275395C8.85148 0.451878 8.95083 0.691323 8.95098 0.941057C8.95113 1.19079 8.85206 1.43036 8.67558 1.60705L2.27468 8.00024L8.67558 14.3934C8.76309 14.4807 8.83251 14.5845 8.87988 14.6986C8.92725 14.8128 8.95164 14.9352 8.95164 15.0588C8.95164 15.1824 8.92725 15.3048 8.87988 15.419C8.83251 15.5332 8.76309 15.6369 8.67558 15.7242Z" fill="currentColor"/>
</svg>
