<svg data-name="Layer 1" xmlns="http://www.w3.org/2000/svg" viewBox="0 0 30 30"><path d="M24.08 6a57.05 57.05 0 014.07 4.3 7.54 7.54 0 011.79 3.74 7.55 7.55 0 010 1.9 7.54 7.54 0 01-1.79 3.74A57.05 57.05 0 0124.08 24l-.09.09a57.05 57.05 0 01-4.3 4.07A7.54 7.54 0 0116 29.94a7.55 7.55 0 01-1.9 0 7.54 7.54 0 01-3.74-1.79A57.05 57.05 0 016 24.08L5.92 24a57.05 57.05 0 01-4.07-4.3A7.54 7.54 0 01.06 16a7.55 7.55 0 010-1.9 7.54 7.54 0 011.79-3.74A57.05 57.05 0 015.92 6L6 5.92a57.05 57.05 0 014.3-4.07A7.54 7.54 0 0114.05.06a7.55 7.55 0 011.9 0 7.54 7.54 0 013.74 1.79A57.05 57.05 0 0124 5.92z" fill="#e2e7ed"/><path d="M15 21a6 6 0 116-6 6 6 0 01-6 6zm.38-8a.82.82 0 01-.88-.75.89.89 0 011.75 0 .82.82 0 01-.88.75zm.35 1.69L15 17.32a.54.54 0 00.31.62.25.25 0 01.16.23v.08a.25.25 0 01-.25.25h-.72a.75.75 0 01-.75-.75 1.23 1.23 0 010-.19l.7-2.63a.53.53 0 00-.31-.62.25.25 0 01-.16-.23V14a.25.25 0 01.25-.25H15a.75.75 0 01.75.75.62.62 0 010 .19z" fill="#4d64d2" fill-rule="evenodd"/></svg>