<svg width="16" height="16" fill="none" xmlns="http://www.w3.org/2000/svg"><path d="M.5 4.87c-.3 0-.5.176-.5.35v1.226c0 .262.2.437.5.437h9.4c.3 0 .5-.175.5-.437V5.22c0-.263-.2-.438-.5-.438H.5v.088zm0 7.963c-.3 0-.5.175-.5.438v1.225c0 .175.2.35.5.35h9.4c.3 0 .5-.175.5-.438v-1.225c0-.262-.2-.437-.5-.437H.5v.087zm15.5-2.45v-1.05c0-.262-.3-.525-.6-.525H.6c-.3 0-.6.263-.6.525v.963c0 .262.3.525.6.525h14.9c.2 0 .5-.175.5-.438zm0-8.05v-.962c0-.263-.3-.525-.6-.525H.6c-.3 0-.6.262-.6.525v.962c0 .263.3.525.6.525h14.9c.2 0 .5-.262.5-.525z" fill="currentColor"/></svg>