<svg width="24" height="24" fill="none" xmlns="http://www.w3.org/2000/svg">
  <g clip-path="url(#clip0)" fill="#000">
    <path d="M13.51 2.214h-1.858V.355h1.858v1.859zM15.37 5.93h1.858V4.072H15.37v1.859zm0 3.717h1.858V7.789H15.37v1.859zm-7.435 7.434h1.859v-1.858H7.934v1.858zM4.217 2.214h1.859V.355H4.217v1.859zM.5 13.365h1.859v-1.858H.5v1.858zm1.859 3.717v-1.858H.5c0 1.022.836 1.858 1.859 1.858zM15.369.355v1.859h1.858A1.864 1.864 0 0015.37.355zM7.934 2.214h1.859V.355H7.934v1.859zM.5 5.93h1.859V4.072H.5v1.859zm3.717 11.151h1.859v-1.858H4.217v1.858zM.5 9.648h1.859V7.789H.5v1.859zm0-7.434h1.859V.355A1.864 1.864 0 00.5 2.214z"/>
    <path fill-rule="evenodd" clip-rule="evenodd" d="M6.773 9.293a2.875 2.875 0 012.875-2.875h10.977A2.875 2.875 0 0123.5 9.293V20.27a2.875 2.875 0 01-2.875 2.875H9.648a2.875 2.875 0 01-2.875-2.875V9.293zm12.283 4.879a503.636 503.636 0 01-4.084-2.139 877.68 877.68 0 01-4.305-2.277.226.226 0 00-.327.257l1.184 4.419c.727 2.71 1.342 4.922 1.369 4.914.026-.008.449-.654.94-1.436.491-.78.92-1.405.954-1.388.044.024 2.595 3.169 3.028 3.734.03.039.082.063.117.054.102-.028.985-.742 1.046-.846.042-.073-.298-.52-1.461-1.92-1.375-1.654-1.63-1.989-1.535-2.015.101-.027 2.808-1.03 3.039-1.127l.03-.012a.12.12 0 00.005-.218z"/>
  </g>
  <defs>
    <clipPath id="clip0">
      <path fill="#fff" transform="translate(.5 .25)" d="M0 0h23v23H0z"/>
    </clipPath>
  </defs>
</svg>
