<svg width="16" height="16" viewBox="0 0 16 16" fill="none" xmlns="http://www.w3.org/2000/svg">
<path fill-rule="evenodd" clip-rule="evenodd" d="M0.0115095 15.6494L0.74576 13.2008C0.883928 12.74 1.13438 12.3206 1.4747 11.9802L10.8084 2.64586C10.9501 2.50413 11.18 2.50389 11.3219 2.64533C11.3221 2.64551 11.3223 2.64568 11.3225 2.64586L13.3525 4.67642C13.4945 4.81847 13.4945 5.04843 13.3525 5.19047L4.01918 14.5246C3.67872 14.8651 3.25887 15.1159 2.79734 15.2544L0.350977 15.9885C0.206743 16.0316 0.0547509 15.9499 0.0114928 15.8059C-0.00383657 15.7548 -0.00383085 15.7004 0.0115095 15.6494ZM14.6825 0.31833L15.6817 1.3174C16.1061 1.74199 16.1061 2.42946 15.6817 2.85404L14.4638 4.07166C14.3227 4.21289 14.0937 4.21316 13.9523 4.07227C13.9521 4.07207 13.9519 4.07186 13.9517 4.07166L11.928 2.04819V2.04819C11.7865 1.90662 11.7865 1.67737 11.928 1.5358L13.1459 0.318185C13.5693 -0.105465 14.2565 -0.106148 14.6808 0.31666C14.6814 0.317216 14.6819 0.317773 14.6825 0.31833Z" fill="currentColor"/>
</svg>
