<svg width="16" height="16" viewBox="0 0 16 16" fill="none" xmlns="http://www.w3.org/2000/svg">
<path fill-rule="evenodd" clip-rule="evenodd" d="M15.9196 4.07276C15.8018 3.83443 12.1153 0.150156 11.9086 0.0641414C11.5942 -0.0666148 11.1931 0.00736906 10.9433 0.242104C10.687 0.482979 10.5956 0.916229 10.7319 1.24383C10.774 1.34522 11.1677 1.77237 11.8659 2.47419L12.9353 3.54923L6.78605 3.56034L0.636772 3.57146L0.433502 3.69741C0.139952 3.87934 -0.0187628 4.1896 0.010412 4.52464C0.0359619 4.8184 0.171837 5.04495 0.421789 5.21076L0.595551 5.32601L6.78643 5.337L12.9773 5.34799L11.8889 6.44404C10.8196 7.52084 10.7996 7.54415 10.7504 7.77007C10.6319 8.31344 10.9869 8.79268 11.5481 8.84699C11.9451 8.88547 11.9189 8.9069 13.9507 6.87713C15.1918 5.63732 15.8661 4.93366 15.9201 4.82196C16.0268 4.6013 16.0266 4.28928 15.9196 4.07276ZM15.957 11.2863C15.8988 11.0945 15.5883 10.794 15.3917 10.7393C15.2811 10.7085 13.3317 10.6945 9.12615 10.6944L3.02113 10.6941L4.1101 9.59752C5.17989 8.52018 5.19989 8.49687 5.24916 8.27095C5.39604 7.59724 4.80193 7.04598 4.12314 7.22603C3.95413 7.27085 3.75324 7.45838 2.04879 9.16243C0.809077 10.4019 0.133367 11.1075 0.0794339 11.2191C-0.0193467 11.4233 -0.0268083 11.7248 0.0615944 11.9383C0.105566 12.0445 0.722091 12.6919 2.00999 13.9844C4.06792 16.0497 4.04033 16.0272 4.47425 15.9912C5.01208 15.9465 5.36832 15.4527 5.24882 14.9176C5.19993 14.6986 5.16542 14.6579 4.13344 13.6015L3.06848 12.5113L9.21234 12.4905L15.3562 12.4696L15.5531 12.3536C15.9023 12.1478 16.0777 11.6844 15.957 11.2863Z" fill="currentColor"/>
</svg>
