<svg width="46" height="46" fill="none" xmlns="http://www.w3.org/2000/svg">
  <g clip-path="url(#clip0)">
    <path fill-rule="evenodd" clip-rule="evenodd" d="M36.68 9.18l.14.14c2.642 2.642 4.72 4.72 6.179 6.55 1.491 1.873 2.461 3.635 2.726 5.677a11.3 11.3 0 010 2.906c-.265 2.042-1.235 3.804-2.726 5.676-1.46 1.831-3.537 3.909-6.18 6.552l-.138.138c-2.643 2.643-4.72 4.72-6.552 6.18-1.872 1.491-3.634 2.461-5.677 2.726a11.3 11.3 0 01-2.905 0c-2.042-.265-3.804-1.235-5.676-2.726-1.831-1.46-3.909-3.537-6.552-6.18l-.138-.138C6.538 34.038 4.46 31.96 3 30.129 1.51 28.257.54 26.495.275 24.453a11.302 11.302 0 010-2.906c.265-2.042 1.235-3.804 2.726-5.676 1.46-1.831 3.537-3.909 6.18-6.552l.138-.138c2.643-2.643 4.72-4.72 6.552-6.18C17.743 1.51 19.505.54 21.547.275c.965-.125 1.941-.125 2.906 0 2.042.265 3.804 1.235 5.676 2.726 1.831 1.46 3.909 3.537 6.552 6.18zm-8.494-3.74c-1.652-1.317-2.886-1.911-4.134-2.073a8.184 8.184 0 00-2.104 0c-1.248.162-2.482.756-4.134 2.072-1.677 1.337-3.632 3.288-6.36 6.015-2.727 2.728-4.678 4.683-6.015 6.36-1.316 1.652-1.91 2.886-2.072 4.134a8.183 8.183 0 000 2.104c.162 1.248.756 2.482 2.072 4.134 1.337 1.677 3.288 3.632 6.015 6.36 2.728 2.727 4.683 4.678 6.36 6.015 1.652 1.316 2.886 1.91 4.134 2.072.698.09 1.405.09 2.104 0 1.248-.162 2.482-.756 4.134-2.072 1.677-1.337 3.632-3.288 6.36-6.016 2.727-2.727 4.678-4.682 6.015-6.359 1.316-1.652 1.91-2.886 2.072-4.134.09-.698.09-1.405 0-2.104-.162-1.248-.756-2.482-2.072-4.134-1.337-1.677-3.288-3.632-6.016-6.36-2.727-2.727-4.682-4.678-6.359-6.015z" fill="#C1C9D2"/>
  </g>
  <defs>
    <clipPath id="clip0">
      <path fill="#fff" d="M0 0h46v46H0z"/>
    </clipPath>
  </defs>
</svg>
