<svg width="18" height="18" viewBox="0 0 18 18" fill="none" xmlns="http://www.w3.org/2000/svg">
<path d="M8.76603 13.5522C8.54992 13.5522 8.41034 13.5713 8.3277 13.5903V16.3916C8.41051 16.4107 8.54391 16.4107 8.66443 16.4107C9.54083 16.4169 10.1126 15.9344 10.1126 14.9116C10.1188 14.0222 9.59809 13.5522 8.76603 13.5522Z" fill="currentColor"/>
<path d="M5.0241 13.5396C4.8273 13.5396 4.69391 13.5586 4.62384 13.5775V14.8418C4.70655 14.8607 4.80825 14.8673 4.94747 14.8673C5.4624 14.8673 5.77985 14.6067 5.77985 14.1684C5.77988 13.7747 5.50658 13.5396 5.0241 13.5396Z" fill="currentColor"/>
<path d="M15.5553 4.31345C15.5543 4.2309 15.5281 4.14936 15.4714 4.08492L12.0008 0.120719C12.0001 0.119607 11.9987 0.119248 11.998 0.118235C11.9773 0.0951304 11.9536 0.0760782 11.928 0.0592808C11.9205 0.0543789 11.9125 0.0499671 11.9046 0.04549C11.8825 0.0335293 11.8594 0.0235947 11.835 0.0163398C11.8288 0.0144444 11.8225 0.0117647 11.816 0.0100653C11.7898 0.00372548 11.7626 0 11.7354 0H3.20588C2.81673 0 2.5 0.316764 2.5 0.705912V17.2941C2.5 17.6834 2.81673 18 3.20588 18H14.8529C15.242 18 15.5588 17.6834 15.5588 17.2941V4.35299C15.5588 4.33972 15.5567 4.32672 15.5553 4.31345ZM6.34512 15.1592C6.01492 15.4704 5.52577 15.6104 4.95398 15.6104C4.82712 15.6104 4.71244 15.6038 4.62385 15.5914V17.1221H3.6647V12.8978C3.9631 12.8472 4.38258 12.8089 4.97342 12.8089C5.57038 12.8089 5.99603 12.9233 6.28178 13.1518C6.55508 13.3679 6.73881 13.7236 6.73881 14.1428C6.73881 14.5622 6.5994 14.9179 6.34512 15.1592ZM10.4298 16.6141C9.97929 16.9887 9.29324 17.1665 8.45501 17.1665C7.95308 17.1665 7.59756 17.1348 7.35577 17.1031V12.8978C7.71155 12.841 8.17547 12.8089 8.66445 12.8089C9.4771 12.8089 10.0044 12.9551 10.4176 13.2663C10.8623 13.5966 11.1419 14.1238 11.1419 14.8797C11.1415 15.6993 10.843 16.2645 10.4298 16.6141ZM14.3945 13.6348H12.749V14.6129H14.2862V15.4008H12.749V17.1221H11.7774V12.841H14.3945V13.6348ZM3.20588 11.9853V0.705912H11.3824V4.3175C11.3824 4.5123 11.5403 4.67044 11.7354 4.67044H14.8529L14.8533 11.9853H3.20588Z" fill="currentColor"/>
<path d="M12.6504 7.58609C12.6297 7.58416 12.1324 7.53877 11.369 7.53877C11.1298 7.53877 10.8889 7.54344 10.651 7.5524C9.14342 6.42103 7.90859 5.28878 7.24751 4.65424C7.25957 4.58437 7.26787 4.52914 7.27172 4.48672C7.35891 3.5663 7.26199 2.94493 6.9846 2.63983C6.80297 2.44046 6.5362 2.37412 6.25804 2.4501C6.08529 2.49536 5.76552 2.66294 5.66314 3.00408C5.5501 3.38107 5.7318 3.83862 6.20915 4.36921C6.21673 4.37725 6.37872 4.54698 6.67307 4.8346C6.48176 5.74678 5.98098 7.71524 5.738 8.6605C5.16732 8.96543 4.69183 9.33275 4.32373 9.75412L4.29961 9.7817L4.28402 9.81481C4.24611 9.89445 4.06491 10.3078 4.20095 10.6399C4.26308 10.7909 4.37948 10.9012 4.53762 10.9591L4.58 10.9705C4.58 10.9705 4.61824 10.9788 4.68546 10.9788C4.9799 10.9788 5.7067 10.8241 6.09653 9.38746L6.19098 9.02347C7.55172 8.36207 9.25267 8.1487 10.4856 8.08926C11.1197 8.55955 11.7508 8.99158 12.3623 9.37416L12.3823 9.38572C12.4119 9.40089 12.68 9.53327 12.9941 9.53357C13.4428 9.53357 13.7706 9.25817 13.8926 8.77824L13.8988 8.74543C13.9329 8.47115 13.864 8.22393 13.6996 8.03066C13.3532 7.62354 12.7084 7.58805 12.6504 7.58609ZM4.69644 10.4491C4.69369 10.4459 4.69239 10.4428 4.69101 10.4393C4.66173 10.3688 4.69686 10.1978 4.74856 10.0726C4.97052 9.82441 5.23696 9.59661 5.54441 9.39151C5.245 10.3607 4.80958 10.4445 4.69644 10.4491ZM6.59748 4.00963C6.13768 3.4978 6.14457 3.24405 6.16931 3.15862C6.2099 3.01585 6.39467 2.9614 6.39467 2.9614C6.48696 2.9363 6.54297 2.94124 6.59284 2.99598C6.70562 3.11986 6.80248 3.49375 6.76421 4.17957C6.65565 4.07048 6.59748 4.00963 6.59748 4.00963ZM6.3599 8.36821L6.36784 8.33788L6.36679 8.33824C6.59702 7.43652 6.92905 6.11616 7.11996 5.26803L7.12686 5.2746L7.12754 5.27054C7.74519 5.85218 8.69224 6.70292 9.82619 7.58776L9.81345 7.58828L9.83221 7.60243C8.76397 7.69266 7.4881 7.90325 6.3599 8.36821ZM13.3753 8.66403C13.294 8.96291 13.1375 9.00376 12.9941 9.00376C12.8276 9.00376 12.6674 8.93448 12.6308 8.91775C12.2145 8.65677 11.7885 8.37239 11.3586 8.06815C11.3621 8.06815 11.3652 8.06815 11.369 8.06815C12.1059 8.06815 12.5967 8.11289 12.616 8.11426C12.739 8.11883 13.1285 8.17635 13.2963 8.37367C13.3622 8.45102 13.3874 8.54347 13.3753 8.66403Z" fill="currentColor"/>
</svg>
