<svg width="18" height="18" fill="none" xmlns="http://www.w3.org/2000/svg"><path fill-rule="evenodd" clip-rule="evenodd" d="M15.471 4.085a.348.348 0 01.085.239l.003.029v6.068h-.706v-5.75h-3.118a.353.353 0 01-.353-.354V.706H3.206v9.715H2.5V.706c0-.39.317-.706.706-.706h8.53c.027 0 .054.004.08.01l.011.004.008.002a.364.364 0 01.07.03h.002a.379.379 0 01.091.072l.003.003 3.47 3.964zM2.5 15.755v1.54c0 .388.317.705.706.705h11.647c.389 0 .706-.317.706-.706v-1.54h-.706v1.35l-5.823.03-5.824.032v-1.412H2.5zM2 10.421a1 1 0 00-1 1v3.333a1 1 0 001 1h14a1 1 0 001-1v-3.333a1 1 0 00-1-1H2zm9.725 3.85c.257 0 .543-.056.71-.123l.129.666c-.156.078-.509.162-.967.162-1.304 0-1.976-.811-1.976-1.885 0-1.287.918-2.003 2.06-2.003.441 0 .777.09.928.168l-.173.677a1.836 1.836 0 00-.716-.14c-.678 0-1.203.408-1.203 1.248 0 .754.447 1.23 1.208 1.23zm-2.49-1.275c0 1.236-.75 1.986-1.852 1.986-1.119 0-1.773-.845-1.773-1.92 0-1.13.721-1.974 1.835-1.974 1.158 0 1.79.867 1.79 1.908zm-7.346 1.908V11.2c.313-.05.722-.078 1.152-.078.716 0 1.18.128 1.544.403.392.29.638.755.638 1.42 0 .722-.263 1.22-.627 1.528-.397.33-1.001.486-1.74.486-.441 0-.755-.028-.967-.055zm13.238.016l-.342-.682c-.104-.197-.18-.356-.257-.514a37.422 37.422 0 00-.079-.163h-.01c-.061.169-.132.324-.215.508l-.076.169-.314.682h-.973l1.09-1.908-1.05-1.863h.978l.33.689c.112.229.196.414.286.626h.01c.09-.239.162-.406.255-.621l.003-.005.319-.689h.973l-1.063 1.84 1.12 1.931h-.985zm-7.699-.615c-.57 0-.917-.52-.917-1.26 0-.732.335-1.28.911-1.28.588 0 .912.582.912 1.259 0 .733-.33 1.28-.906 1.28zm-4.297-2.53c.733 0 1.191.415 1.186 1.198 0 .901-.504 1.326-1.276 1.32-.106 0-.223 0-.296-.016V11.81c.073-.017.195-.034.386-.034z" fill="currentColor"/><path stroke="currentColor" stroke-linecap="round" d="M4.5 4.5h5M4.5 6.5h9M4.5 8.5h9"/></svg>
