<svg data-name="Layer 1" xmlns="http://www.w3.org/2000/svg" viewBox="0 0 46 46"><path d="M36.79 9.07l.14.14a89.59 89.59 0 016.23 6.6 11.59 11.59 0 012.75 5.73 11.89 11.89 0 010 2.92 11.59 11.59 0 01-2.75 5.73 89.59 89.59 0 01-6.23 6.6l-.14.14a89.59 89.59 0 01-6.6 6.23 11.59 11.59 0 01-5.73 2.75 11.89 11.89 0 01-2.92 0 11.59 11.59 0 01-5.73-2.75 89.59 89.59 0 01-6.6-6.23l-.14-.14a89.59 89.59 0 01-6.23-6.6 11.59 11.59 0 01-2.75-5.73 11.89 11.89 0 010-2.92 11.59 11.59 0 012.75-5.73 89.59 89.59 0 016.23-6.6l.14-.14a89.59 89.59 0 016.6-6.23A11.59 11.59 0 0121.54.09a11.89 11.89 0 012.92 0 11.59 11.59 0 015.73 2.75 89.59 89.59 0 016.6 6.23zM28.23 5.3a8.41 8.41 0 00-4.17-2.09 8.36 8.36 0 00-2.12 0 8.41 8.41 0 00-4.17 2.09 87.82 87.82 0 00-6.41 6.06 87.82 87.82 0 00-6.06 6.41 8.41 8.41 0 00-2.09 4.17 8.36 8.36 0 000 2.12 8.41 8.41 0 002.09 4.17 87.82 87.82 0 006.06 6.41 87.82 87.82 0 006.41 6.06 8.41 8.41 0 004.17 2.09 8.36 8.36 0 002.12 0 8.41 8.41 0 004.17-2.09 87.82 87.82 0 006.41-6.06 87.82 87.82 0 006.06-6.41 8.41 8.41 0 002.09-4.17 8.36 8.36 0 000-2.12 8.41 8.41 0 00-2.09-4.17 87.82 87.82 0 00-6.06-6.41 87.82 87.82 0 00-6.41-6.06z" fill="#c1c8d1"/><path d="M32 21.56l-.61 7.9a1.13 1.13 0 01-1.12 1H15.73a1.13 1.13 0 01-1.12-1l-.61-7.9a.75.75 0 01.69-.81h16.56a.76.76 0 01.75.75zm-.75-3.06v1.12a.38.38 0 01-.37.38H15.12a.38.38 0 01-.37-.38v-3.37a.74.74 0 01.75-.75h4.25a1.5 1.5 0 011.06.44l1.38 1.37a1.5 1.5 0 001.06.44h7.25a.75.75 0 01.75.75z" fill="#4d64d2" fill-rule="evenodd"/></svg>