<svg width="46" height="45" fill="none" xmlns="http://www.w3.org/2000/svg"><mask id="a" maskUnits="userSpaceOnUse" x="0" y="0" width="46" height="45"><path fill-rule="evenodd" clip-rule="evenodd" d="M12.557 7.161l-4.896 4.896-.77.77c.032-.417.071-.808.12-1.176.24-1.774.694-2.851 1.491-3.649.798-.797 1.875-1.252 3.65-1.49.367-.05.758-.089 1.176-.12l-.77.77zm2.903-2.864c-1.36.031-2.544.097-3.575.235-1.996.269-3.565.828-4.795 2.058s-1.79 2.8-2.058 4.795c-.138 1.031-.204 2.216-.235 3.575-.94.984-1.73 1.867-2.362 2.694C1.214 19.255.5 20.76.5 22.5c0 1.74.714 3.245 1.935 4.846.631.827 1.423 1.71 2.362 2.694.031 1.36.097 2.544.235 3.575.268 1.996.828 3.565 2.058 4.795s2.799 1.79 4.795 2.058c1.03.138 2.216.204 3.575.235.983.94 1.867 1.73 2.694 2.361C19.755 44.287 21.26 45 23 45c1.74 0 3.245-.714 4.846-1.935.827-.631 1.71-1.423 2.694-2.362 1.36-.031 2.544-.097 3.575-.235 1.996-.269 3.564-.828 4.795-2.058 1.23-1.23 1.79-2.8 2.058-4.795.138-1.031.204-2.216.234-3.575.94-.983 1.732-1.867 2.363-2.694C44.785 25.745 45.5 24.24 45.5 22.5c0-1.74-.714-3.245-1.935-4.846-.631-.827-1.423-1.71-2.362-2.694-.031-1.36-.097-2.544-.235-3.575-.269-1.996-.828-3.565-2.058-4.795s-2.8-1.79-4.795-2.058c-1.031-.138-2.216-.204-3.575-.235-.983-.94-1.867-1.73-2.694-2.362C26.245.714 24.74 0 23 0c-1.74 0-3.245.714-4.846 1.935-.827.631-1.71 1.423-2.694 2.362zm.822 1.984a261.27 261.27 0 00-2.366 2.347l-4.788 4.788c-.873.873-1.654 1.654-2.347 2.366-.013.994-.014 2.098-.014 3.332v6.771c0 1.235 0 2.34.014 3.333.693.712 1.474 1.493 2.347 2.366l4.788 4.788a261.39 261.39 0 002.366 2.347c.993.013 2.098.014 3.332.014h6.771c1.235 0 2.34 0 3.333-.014a261.39 261.39 0 002.366-2.347l4.788-4.788a260.07 260.07 0 002.347-2.366c.013-.993.014-2.098.014-3.332v-6.771c0-1.235 0-2.34-.014-3.333a260.07 260.07 0 00-2.347-2.366l-4.788-4.788a261.27 261.27 0 00-2.366-2.347c-.994-.013-2.098-.014-3.333-.014h-6.77c-1.235 0-2.34 0-3.333.014zm11.27-2.01l-1.09-.001H18.448c.319-.273.623-.522.918-.747C20.789 2.437 21.872 1.997 23 1.997c1.128 0 2.21.44 3.634 1.526.295.225.6.474.917.747zm5.12 2.12l.77.77 4.897 4.896.77.77c-.032-.417-.072-.808-.121-1.176-.239-1.774-.693-2.851-1.49-3.649-.798-.797-1.875-1.252-3.65-1.49-.367-.05-.758-.089-1.176-.12zM41.23 17.95v9.103c.273-.318.522-.623.747-.918 1.086-1.423 1.526-2.506 1.526-3.634 0-1.128-.44-2.21-1.526-3.634-.225-.295-.474-.6-.747-.917zm-2.122 14.223l-.77.77-4.895 4.897-.77.77c.417-.032.808-.072 1.176-.12 1.774-.24 2.851-.694 3.648-1.491.798-.798 1.252-1.875 1.491-3.65.05-.367.089-.758.12-1.176zM27.551 40.73h-9.103c.319.273.623.522.918.747 1.423 1.086 2.506 1.526 3.634 1.526 1.128 0 2.21-.44 3.634-1.526.295-.225.6-.474.917-.747zm-14.223-2.122l-.77-.77-4.897-4.895-.77-.77c.032.417.071.808.12 1.176.24 1.774.694 2.851 1.491 3.649.798.797 1.875 1.252 3.65 1.49.367.05.758.089 1.176.12zM4.77 27.051v-8.013-1.089c-.273.318-.522.622-.747.917-1.086 1.423-1.526 2.506-1.526 3.634 0 1.128.44 2.21 1.526 3.634.225.295.474.6.747.917z" fill="currentColor"/></mask><g mask="url(#a)"><path fill="currentColor" d="M-2.5-3h57v53h-57z"/></g></svg>