<svg width="16" height="17" fill="none" xmlns="http://www.w3.org/2000/svg"><path fill-rule="evenodd" clip-rule="evenodd" d="M11.632 3.925V1.954H1.454v10.178h1.97v1.454h-1.97c-.8 0-1.454-.654-1.454-1.454V1.954C0 1.154.654.5 1.454.5h10.178c.8 0 1.454.654 1.454 1.454v1.97h-1.454z" fill="currentColor"/><path d="M14.546 4.868v10.178H4.368V4.868h10.178zm0-1.454H4.368c-.8 0-1.454.654-1.454 1.454v10.178c0 .8.654 1.454 1.454 1.454h10.178c.8 0 1.454-.654 1.454-1.454V4.868c0-.8-.655-1.454-1.454-1.454z" fill="currentColor"/></svg>
