<svg width="16" height="17" fill="none" xmlns="http://www.w3.org/2000/svg"><path d="M14.503 3.026H4.023c-.83 0-1.497.674-1.497 1.497v10.48c0 .823.667 1.497 1.497 1.497h10.48c.83 0 1.497-.674 1.497-1.497V4.523c0-.823-.666-1.497-1.497-1.497zm-6.737 10.48L4.023 9.763 5.08 8.708l2.687 2.68 5.681-5.682 1.056 1.063-6.737 6.737z" fill="currentColor"/><path fill-rule="evenodd" clip-rule="evenodd" d="M11.977 3.026V1.997H1.497v10.48h1.03v1.497h-1.03A1.501 1.501 0 010 12.477V1.997C0 1.174.674.5 1.497.5h10.48c.823 0 1.497.674 1.497 1.497v1.03h-1.497z" fill="currentColor"/></svg>
