<svg width="32" height="32" fill="none" xmlns="http://www.w3.org/2000/svg"><path d="M21 2.204l.905.905c2.404 2.935 3.96 7.62 3.957 12.895-.003 5.19-1.513 9.801-3.851 12.744l.017.017 7.997-7.99a6.74 6.74 0 00.002-9.532l-9.255-9.267.228.228zM1.973 20.76l8.122 8.128c-2.404-2.932-3.957-7.617-3.957-12.892.003-5.19 1.513-9.801 3.851-12.744l-.017-.017-7.996 7.993a6.74 6.74 0 00-.003 9.532z" fill="#3D4EAC"/><path d="M29.796 21l-.905.905c-2.934 2.404-7.62 3.96-12.895 3.957-5.19-.003-9.8-1.513-12.741-3.851l-.017.017 7.99 7.997a6.74 6.74 0 009.533.002l9.26-9.255-.225.228zM11.24 1.973l-8.131 8.122c2.934-2.404 7.62-3.957 12.895-3.957 5.19.003 9.8 1.513 12.744 3.851l.017-.017-7.993-7.996a6.74 6.74 0 00-9.533-.003z" fill="#6C8EEF"/></svg>