<svg width="137" height="44" viewBox="0 0 137 44" fill="none" xmlns="http://www.w3.org/2000/svg">
<path d="M40.6255 21.2397C39.3321 21.2397 38.2388 21.033 37.3455 20.6197C36.4655 20.2063 35.7921 19.6397 35.3255 18.9197C34.8588 18.1863 34.6255 17.3597 34.6255 16.4397H37.4055C37.4055 16.8263 37.5121 17.2063 37.7255 17.5797C37.9388 17.9397 38.2788 18.233 38.7455 18.4597C39.2255 18.6863 39.8521 18.7997 40.6255 18.7997C41.3188 18.7997 41.8988 18.6997 42.3655 18.4997C42.8321 18.2997 43.1788 18.0397 43.4055 17.7197C43.6321 17.3863 43.7455 17.013 43.7455 16.5997C43.7455 16.0797 43.5255 15.6663 43.0855 15.3597C42.6455 15.0397 41.9655 14.8397 41.0455 14.7597L39.7655 14.6597C38.3655 14.5397 37.2455 14.1063 36.4055 13.3597C35.5788 12.5997 35.1655 11.5997 35.1655 10.3597C35.1655 9.42635 35.3855 8.62635 35.8255 7.95968C36.2655 7.27968 36.8788 6.75968 37.6655 6.39968C38.4655 6.02635 39.3988 5.83968 40.4655 5.83968C41.5721 5.83968 42.5255 6.03301 43.3255 6.41968C44.1255 6.80635 44.7455 7.35301 45.1855 8.05968C45.6255 8.75301 45.8455 9.57301 45.8455 10.5197H43.0655C43.0655 10.1197 42.9655 9.75301 42.7655 9.41968C42.5788 9.07301 42.2921 8.79968 41.9055 8.59968C41.5321 8.38635 41.0521 8.27968 40.4655 8.27968C39.9055 8.27968 39.4388 8.37301 39.0655 8.55968C38.6921 8.74635 38.4121 8.99968 38.2255 9.31968C38.0388 9.63968 37.9455 9.98635 37.9455 10.3597C37.9455 10.813 38.1121 11.213 38.4455 11.5597C38.7788 11.893 39.3055 12.0863 40.0255 12.1397L41.3055 12.2597C42.3455 12.3397 43.2588 12.5597 44.0455 12.9197C44.8321 13.2797 45.4388 13.7663 45.8655 14.3797C46.3055 14.993 46.5255 15.733 46.5255 16.5997C46.5255 17.5197 46.2855 18.333 45.8055 19.0397C45.3255 19.733 44.6388 20.273 43.7455 20.6597C42.8655 21.0463 41.8255 21.2397 40.6255 21.2397ZM52.922 21.2397C51.9754 21.2397 51.1554 21.0797 50.462 20.7597C49.782 20.4397 49.2087 20.013 48.742 19.4797C48.2887 18.9463 47.9487 18.3463 47.722 17.6797C47.4954 17.013 47.382 16.333 47.382 15.6397V15.2597C47.382 14.5263 47.4954 13.8263 47.722 13.1597C47.962 12.4797 48.3154 11.8797 48.782 11.3597C49.2487 10.8263 49.822 10.4063 50.502 10.0997C51.1954 9.77968 51.9954 9.61968 52.902 9.61968C53.8487 9.61968 54.6954 9.80635 55.442 10.1797C56.1887 10.5397 56.782 11.0463 57.222 11.6997C57.6754 12.353 57.9287 13.113 57.982 13.9797H55.282C55.2154 13.4197 54.9754 12.953 54.562 12.5797C54.162 12.2063 53.6087 12.0197 52.902 12.0197C52.2887 12.0197 51.7754 12.1663 51.362 12.4597C50.962 12.753 50.662 13.1597 50.462 13.6797C50.262 14.1863 50.162 14.773 50.162 15.4397C50.162 16.0797 50.2554 16.6597 50.442 17.1797C50.642 17.6997 50.942 18.1063 51.342 18.3997C51.7554 18.693 52.282 18.8397 52.922 18.8397C53.402 18.8397 53.8154 18.753 54.162 18.5797C54.5087 18.4063 54.782 18.1663 54.982 17.8597C55.1954 17.553 55.3287 17.2063 55.382 16.8197H58.082C58.0287 17.6997 57.7687 18.473 57.302 19.1397C56.8487 19.793 56.242 20.3063 55.482 20.6797C54.7354 21.053 53.882 21.2397 52.922 21.2397ZM60.0291 20.8597V9.99968H62.8091V20.8597H60.0291ZM58.5091 12.0797V9.99968H62.8091V12.0797H58.5091ZM61.0491 8.69968C60.5024 8.69968 60.0957 8.55968 59.8291 8.27968C59.5757 7.98635 59.4491 7.61968 59.4491 7.17968C59.4491 6.73968 59.5757 6.37968 59.8291 6.09968C60.0957 5.81968 60.5024 5.67968 61.0491 5.67968C61.5957 5.67968 61.9957 5.81968 62.2491 6.09968C62.5024 6.37968 62.6291 6.73968 62.6291 7.17968C62.6291 7.61968 62.5024 7.98635 62.2491 8.27968C61.9957 8.55968 61.5957 8.69968 61.0491 8.69968ZM70.073 21.2397C69.1396 21.2397 68.3196 21.0797 67.613 20.7597C66.9196 20.4397 66.3396 20.013 65.873 19.4797C65.4196 18.933 65.073 18.3263 64.833 17.6597C64.6063 16.993 64.493 16.313 64.493 15.6197V15.2397C64.493 14.5197 64.6063 13.8263 64.833 13.1597C65.073 12.4797 65.4196 11.8797 65.873 11.3597C66.3396 10.8263 66.913 10.4063 67.593 10.0997C68.273 9.77968 69.0596 9.61968 69.953 9.61968C71.1263 9.61968 72.1063 9.87968 72.893 10.3997C73.693 10.9063 74.293 11.5797 74.693 12.4197C75.093 13.2463 75.293 14.1397 75.293 15.0997V16.0997H65.673V14.3997H73.553L72.693 15.2397C72.693 14.5463 72.593 13.953 72.393 13.4597C72.193 12.9663 71.8863 12.5863 71.473 12.3197C71.073 12.053 70.5663 11.9197 69.953 11.9197C69.3396 11.9197 68.8196 12.0597 68.393 12.3397C67.9663 12.6197 67.6396 13.0263 67.413 13.5597C67.1996 14.0797 67.093 14.7063 67.093 15.4397C67.093 16.1197 67.1996 16.7263 67.413 17.2597C67.6263 17.7797 67.953 18.193 68.393 18.4997C68.833 18.793 69.393 18.9397 70.073 18.9397C70.753 18.9397 71.3063 18.8063 71.733 18.5397C72.1596 18.2597 72.433 17.9197 72.553 17.5197H75.113C74.953 18.2663 74.6463 18.9197 74.193 19.4797C73.7396 20.0397 73.1596 20.473 72.453 20.7797C71.7596 21.0863 70.9663 21.2397 70.073 21.2397ZM76.8153 20.8597V9.99968H79.0153V14.6597H78.8153C78.8153 13.553 78.962 12.633 79.2553 11.8997C79.5486 11.153 79.982 10.593 80.5553 10.2197C81.142 9.84635 81.8686 9.65968 82.7353 9.65968H82.8553C84.1486 9.65968 85.1286 10.0797 85.7953 10.9197C86.462 11.7463 86.7953 12.9863 86.7953 14.6397V20.8597H84.0153V14.3997C84.0153 13.733 83.822 13.193 83.4353 12.7797C83.062 12.3663 82.542 12.1597 81.8753 12.1597C81.1953 12.1597 80.642 12.373 80.2153 12.7997C79.802 13.213 79.5953 13.773 79.5953 14.4797V20.8597H76.8153ZM93.8041 21.2397C92.8574 21.2397 92.0374 21.0797 91.3441 20.7597C90.6641 20.4397 90.0907 20.013 89.6241 19.4797C89.1707 18.9463 88.8307 18.3463 88.6041 17.6797C88.3774 17.013 88.2641 16.333 88.2641 15.6397V15.2597C88.2641 14.5263 88.3774 13.8263 88.6041 13.1597C88.8441 12.4797 89.1974 11.8797 89.6641 11.3597C90.1307 10.8263 90.7041 10.4063 91.3841 10.0997C92.0774 9.77968 92.8774 9.61968 93.7841 9.61968C94.7307 9.61968 95.5774 9.80635 96.3241 10.1797C97.0707 10.5397 97.6641 11.0463 98.1041 11.6997C98.5574 12.353 98.8107 13.113 98.8641 13.9797H96.1641C96.0974 13.4197 95.8574 12.953 95.4441 12.5797C95.0441 12.2063 94.4907 12.0197 93.7841 12.0197C93.1707 12.0197 92.6574 12.1663 92.2441 12.4597C91.8441 12.753 91.5441 13.1597 91.3441 13.6797C91.1441 14.1863 91.0441 14.773 91.0441 15.4397C91.0441 16.0797 91.1374 16.6597 91.3241 17.1797C91.5241 17.6997 91.8241 18.1063 92.2241 18.3997C92.6374 18.693 93.1641 18.8397 93.8041 18.8397C94.2841 18.8397 94.6974 18.753 95.0441 18.5797C95.3907 18.4063 95.6641 18.1663 95.8641 17.8597C96.0774 17.553 96.2107 17.2063 96.2641 16.8197H98.9641C98.9107 17.6997 98.6507 18.473 98.1841 19.1397C97.7307 19.793 97.1241 20.3063 96.3641 20.6797C95.6174 21.053 94.7641 21.2397 93.8041 21.2397ZM105.251 21.2397C104.318 21.2397 103.498 21.0797 102.791 20.7597C102.098 20.4397 101.518 20.013 101.051 19.4797C100.598 18.933 100.251 18.3263 100.011 17.6597C99.7844 16.993 99.6711 16.313 99.6711 15.6197V15.2397C99.6711 14.5197 99.7844 13.8263 100.011 13.1597C100.251 12.4797 100.598 11.8797 101.051 11.3597C101.518 10.8263 102.091 10.4063 102.771 10.0997C103.451 9.77968 104.238 9.61968 105.131 9.61968C106.304 9.61968 107.284 9.87968 108.071 10.3997C108.871 10.9063 109.471 11.5797 109.871 12.4197C110.271 13.2463 110.471 14.1397 110.471 15.0997V16.0997H100.851V14.3997H108.731L107.871 15.2397C107.871 14.5463 107.771 13.953 107.571 13.4597C107.371 12.9663 107.064 12.5863 106.651 12.3197C106.251 12.053 105.744 11.9197 105.131 11.9197C104.518 11.9197 103.998 12.0597 103.571 12.3397C103.144 12.6197 102.818 13.0263 102.591 13.5597C102.378 14.0797 102.271 14.7063 102.271 15.4397C102.271 16.1197 102.378 16.7263 102.591 17.2597C102.804 17.7797 103.131 18.193 103.571 18.4997C104.011 18.793 104.571 18.9397 105.251 18.9397C105.931 18.9397 106.484 18.8063 106.911 18.5397C107.338 18.2597 107.611 17.9197 107.731 17.5197H110.291C110.131 18.2663 109.824 18.9197 109.371 19.4797C108.918 20.0397 108.338 20.473 107.631 20.7797C106.938 21.0863 106.144 21.2397 105.251 21.2397ZM113.533 19.0397V8.07968H116.373V19.0397H113.533ZM111.873 20.8597V18.6397H118.033V20.8597H111.873ZM111.873 8.47968V6.25968H118.033V8.47968H111.873ZM127.355 21.2397C126.035 21.2397 124.889 21.0063 123.915 20.5397C122.955 20.073 122.155 19.4663 121.515 18.7197C120.889 17.9597 120.415 17.1463 120.095 16.2797C119.789 15.3997 119.635 14.553 119.635 13.7397V13.2997C119.635 12.4063 119.795 11.5197 120.115 10.6397C120.435 9.74635 120.915 8.93968 121.555 8.21968C122.209 7.49968 123.015 6.92635 123.975 6.49968C124.935 6.05968 126.062 5.83968 127.355 5.83968C128.635 5.83968 129.755 6.05968 130.715 6.49968C131.675 6.92635 132.475 7.49968 133.115 8.21968C133.769 8.93968 134.255 9.74635 134.575 10.6397C134.895 11.5197 135.055 12.4063 135.055 13.2997V13.7397C135.055 14.553 134.895 15.3997 134.575 16.2797C134.269 17.1463 133.795 17.9597 133.155 18.7197C132.529 19.4663 131.729 20.073 130.755 20.5397C129.795 21.0063 128.662 21.2397 127.355 21.2397ZM127.355 18.5997C128.102 18.5997 128.769 18.4663 129.355 18.1997C129.955 17.933 130.462 17.5663 130.875 17.0997C131.302 16.6197 131.622 16.0797 131.835 15.4797C132.062 14.8663 132.175 14.2197 132.175 13.5397C132.175 12.8063 132.062 12.133 131.835 11.5197C131.622 10.9063 131.302 10.373 130.875 9.91968C130.462 9.46635 129.955 9.11301 129.355 8.85968C128.755 8.60635 128.089 8.47968 127.355 8.47968C126.609 8.47968 125.935 8.60635 125.335 8.85968C124.735 9.11301 124.222 9.46635 123.795 9.91968C123.382 10.373 123.062 10.9063 122.835 11.5197C122.622 12.133 122.515 12.8063 122.515 13.5397C122.515 14.2197 122.622 14.8663 122.835 15.4797C123.062 16.0797 123.382 16.6197 123.795 17.0997C124.222 17.5663 124.735 17.933 125.335 18.1997C125.935 18.4663 126.609 18.5997 127.355 18.5997Z" fill="#1A1F36"/>
<path d="M34.4055 40.8597L39.6655 26.2597H42.9855L48.4055 40.8597H46.3855L41.4855 27.5397L42.4455 28.0197H40.0855L41.1055 27.5397L36.3655 40.8597H34.4055ZM37.5455 36.4997L38.2055 34.7397H44.5055L45.1655 36.4997H37.5455ZM50.0026 40.8597V30.1797H51.5226V34.7597H51.2826C51.2826 33.7063 51.4226 32.8197 51.7026 32.0997C51.996 31.3663 52.436 30.813 53.0226 30.4397C53.6093 30.053 54.3493 29.8597 55.2426 29.8597H55.3226C56.6693 29.8597 57.6626 30.2797 58.3026 31.1197C58.956 31.9597 59.2826 33.173 59.2826 34.7597V40.8597H57.3626V34.3597C57.3626 33.533 57.1293 32.873 56.6626 32.3797C56.196 31.873 55.556 31.6197 54.7426 31.6197C53.9026 31.6197 53.2226 31.8797 52.7026 32.3997C52.1826 32.9197 51.9226 33.613 51.9226 34.4797V40.8597H50.0026ZM61.9956 40.8597V30.1797H63.5156V34.7597H63.2756C63.2756 33.7063 63.4156 32.8197 63.6956 32.0997C63.9889 31.3663 64.4289 30.813 65.0156 30.4397C65.6023 30.053 66.3423 29.8597 67.2356 29.8597H67.3156C68.6623 29.8597 69.6556 30.2797 70.2956 31.1197C70.9489 31.9597 71.2756 33.173 71.2756 34.7597V40.8597H69.3556V34.3597C69.3556 33.533 69.1223 32.873 68.6556 32.3797C68.1889 31.873 67.5489 31.6197 66.7356 31.6197C65.8956 31.6197 65.2156 31.8797 64.6956 32.3997C64.1756 32.9197 63.9156 33.613 63.9156 34.4797V40.8597H61.9956ZM78.9086 41.2197C77.9752 41.2197 77.1552 41.0597 76.4486 40.7397C75.7419 40.4197 75.1419 39.9997 74.6486 39.4797C74.1686 38.9463 73.8019 38.353 73.5486 37.6997C73.3086 37.0463 73.1886 36.3797 73.1886 35.6997V35.3397C73.1886 34.6597 73.3152 33.993 73.5686 33.3397C73.8219 32.673 74.1952 32.0797 74.6886 31.5597C75.1819 31.0263 75.7819 30.6063 76.4886 30.2997C77.1952 29.9797 78.0019 29.8197 78.9086 29.8197C79.8152 29.8197 80.6219 29.9797 81.3286 30.2997C82.0352 30.6063 82.6352 31.0263 83.1286 31.5597C83.6219 32.0797 83.9952 32.673 84.2486 33.3397C84.5019 33.993 84.6286 34.6597 84.6286 35.3397V35.6997C84.6286 36.3797 84.5019 37.0463 84.2486 37.6997C84.0086 38.353 83.6419 38.9463 83.1486 39.4797C82.6686 39.9997 82.0752 40.4197 81.3686 40.7397C80.6619 41.0597 79.8419 41.2197 78.9086 41.2197ZM78.9086 39.4997C79.7086 39.4997 80.3886 39.3263 80.9486 38.9797C81.5219 38.6197 81.9552 38.1397 82.2486 37.5397C82.5552 36.9397 82.7086 36.2663 82.7086 35.5197C82.7086 34.7597 82.5552 34.0797 82.2486 33.4797C81.9419 32.8797 81.5019 32.4063 80.9286 32.0597C80.3686 31.713 79.6952 31.5397 78.9086 31.5397C78.1352 31.5397 77.4619 31.713 76.8886 32.0597C76.3152 32.4063 75.8752 32.8797 75.5686 33.4797C75.2619 34.0797 75.1086 34.7597 75.1086 35.5197C75.1086 36.2663 75.2552 36.9397 75.5486 37.5397C75.8552 38.1397 76.2886 38.6197 76.8486 38.9797C77.4219 39.3263 78.1086 39.4997 78.9086 39.4997ZM90.8642 40.9797C90.0642 40.9797 89.3709 40.8663 88.7842 40.6397C88.2109 40.413 87.7642 40.0263 87.4442 39.4797C87.1375 38.9197 86.9842 38.1663 86.9842 37.2197V26.9397H88.8242V37.4597C88.8242 38.033 88.9775 38.4797 89.2842 38.7997C89.6042 39.1063 90.0509 39.2597 90.6242 39.2597H92.5042V40.9797H90.8642ZM85.1442 31.6197V30.1797H92.5042V31.6197H85.1442ZM100.841 40.8597V37.6597H100.521V33.9597C100.521 33.2263 100.327 32.673 99.9408 32.2997C99.5674 31.9263 99.0141 31.7397 98.2808 31.7397C97.8674 31.7397 97.4408 31.7463 97.0008 31.7597C96.5608 31.773 96.1408 31.7863 95.7408 31.7997C95.3408 31.813 94.9941 31.833 94.7008 31.8597V30.1797C94.9941 30.153 95.3008 30.133 95.6208 30.1197C95.9541 30.093 96.2941 30.0797 96.6408 30.0797C96.9874 30.0663 97.3208 30.0597 97.6408 30.0597C98.7341 30.0597 99.6274 30.193 100.321 30.4597C101.014 30.713 101.527 31.133 101.861 31.7197C102.194 32.3063 102.361 33.0997 102.361 34.0997V40.8597H100.841ZM97.3408 41.1397C96.5408 41.1397 95.8474 41.0063 95.2608 40.7397C94.6874 40.4597 94.2408 40.0597 93.9208 39.5397C93.6141 39.0197 93.4608 38.393 93.4608 37.6597C93.4608 36.8997 93.6274 36.2663 93.9608 35.7597C94.3074 35.253 94.8074 34.873 95.4608 34.6197C96.1141 34.353 96.9008 34.2197 97.8208 34.2197H100.721V35.6597H97.7408C96.9674 35.6597 96.3741 35.8463 95.9608 36.2197C95.5474 36.593 95.3408 37.073 95.3408 37.6597C95.3408 38.2463 95.5474 38.7197 95.9608 39.0797C96.3741 39.4397 96.9674 39.6197 97.7408 39.6197C98.1941 39.6197 98.6274 39.5397 99.0408 39.3797C99.4541 39.2063 99.7941 38.9263 100.061 38.5397C100.341 38.1397 100.494 37.593 100.521 36.8997L101.041 37.6597C100.974 38.4197 100.787 39.0597 100.481 39.5797C100.187 40.0863 99.7741 40.473 99.2408 40.7397C98.7208 41.0063 98.0874 41.1397 97.3408 41.1397ZM109.245 40.9797C108.445 40.9797 107.751 40.8663 107.165 40.6397C106.591 40.413 106.145 40.0263 105.825 39.4797C105.518 38.9197 105.365 38.1663 105.365 37.2197V26.9397H107.205V37.4597C107.205 38.033 107.358 38.4797 107.665 38.7997C107.985 39.1063 108.431 39.2597 109.005 39.2597H110.885V40.9797H109.245ZM103.525 31.6197V30.1797H110.885V31.6197H103.525ZM117.262 41.2197C116.329 41.2197 115.522 41.0597 114.842 40.7397C114.162 40.4197 113.609 39.9997 113.182 39.4797C112.756 38.9463 112.436 38.353 112.222 37.6997C112.022 37.0463 111.922 36.3797 111.922 35.6997V35.3397C111.922 34.6463 112.022 33.973 112.222 33.3197C112.436 32.6663 112.756 32.0797 113.182 31.5597C113.609 31.0263 114.149 30.6063 114.802 30.2997C115.469 29.9797 116.249 29.8197 117.142 29.8197C118.302 29.8197 119.256 30.073 120.002 30.5797C120.762 31.073 121.322 31.713 121.682 32.4997C122.056 33.2863 122.242 34.1263 122.242 35.0197V35.8797H112.762V34.4397H120.842L120.402 35.2197C120.402 34.4597 120.282 33.8063 120.042 33.2597C119.802 32.6997 119.442 32.2663 118.962 31.9597C118.482 31.653 117.876 31.4997 117.142 31.4997C116.382 31.4997 115.749 31.673 115.242 32.0197C114.749 32.3663 114.376 32.8397 114.122 33.4397C113.882 34.0397 113.762 34.733 113.762 35.5197C113.762 36.2797 113.882 36.9663 114.122 37.5797C114.376 38.1797 114.762 38.6597 115.282 39.0197C115.802 39.3663 116.462 39.5397 117.262 39.5397C118.102 39.5397 118.782 39.353 119.302 38.9797C119.836 38.6063 120.156 38.173 120.262 37.6797H122.062C121.916 38.413 121.622 39.0463 121.182 39.5797C120.742 40.113 120.189 40.5197 119.522 40.7997C118.856 41.0797 118.102 41.2197 117.262 41.2197Z" fill="#4D64D2"/>
<path d="M17.6682 1.86089L18.4296 2.62496C20.452 5.10279 21.761 9.05816 21.7586 13.5125C21.7562 17.8945 20.4856 21.7872 18.5185 24.2722L18.5329 24.2867L25.2605 17.5401C27.475 15.3178 27.4774 11.7143 25.2629 9.49202L17.4761 1.66806L17.6682 1.86089Z" fill="#3D4EAC"/>
<path d="M1.65969 17.528L8.49298 24.3902C6.47061 21.9148 5.164 17.9594 5.164 13.5051C5.1664 9.12314 6.43698 5.23045 8.40411 2.74539L8.3897 2.73093L1.66209 9.47987C-0.552427 11.7022 -0.554829 15.3057 1.65969 17.528Z" fill="#3D4EAC"/>
<path d="M25.0684 17.7306L24.307 18.4947C21.8379 20.5242 17.8964 21.8378 13.4578 21.8354C9.0912 21.833 5.2122 20.5579 2.73829 18.5838L2.72388 18.5983L9.44668 25.3497C11.6612 27.572 15.252 27.5744 17.4665 25.3521L25.2581 17.5378L25.0684 17.7306Z" fill="#6C8EEF"/>
<path d="M9.45585 1.66557L2.61536 8.52299C5.08447 6.49348 9.02592 5.18226 13.4646 5.18226C17.8311 5.18467 21.7101 6.45974 24.1865 8.43381L24.2009 8.41934L17.4757 1.66799C15.2611 -0.554347 11.6704 -0.556757 9.45585 1.66557Z" fill="#6C8EEF"/>
</svg>
