<svg width="18" height="18" fill="none" xmlns="http://www.w3.org/2000/svg"><path fill-rule="evenodd" clip-rule="evenodd" d="M10.868 10.872a.44.44 0 01-.618 0L7.496 8.12l-2.75 2.75a.437.437 0 01-.62-.619l2.752-2.75-2.751-2.748a.437.437 0 01.618-.618l2.751 2.749 2.753-2.752a.437.437 0 11.619.618L8.115 7.502l2.753 2.752a.436.436 0 010 .618z" fill="currentColor"/><path fill-rule="evenodd" clip-rule="evenodd" d="M7.51 0c3.986-.006 7.223 3.323 7.228 7.434a7.6 7.6 0 01-1.427 4.454l3.902 3.404c.627.551.701 1.522.166 2.168a1.46 1.46 0 01-2.269 0l-3.301-4.023c-3.206 2.45-7.73 1.756-10.107-1.55C-.674 8.581 0 3.915 3.205 1.465A7.08 7.08 0 017.51 0zm0 13.34c3.152 0 5.706-2.636 5.706-5.886S10.662 1.57 7.51 1.57c-3.152 0-5.707 2.635-5.707 5.885S4.358 13.34 7.51 13.34z" fill="currentColor"/></svg>