<svg width="16" height="16" fill="none" xmlns="http://www.w3.org/2000/svg"><path d="M1.883 7.217c-.034.25-.051.508-.051.783 0 .267.017.533.06.783L.152 10.1a.401.401 0 00-.102.508l1.645 2.767c.102.183.317.242.505.183l2.048-.8c.428.317.882.584 1.387.784l.309 2.116c.034.2.205.342.411.342h3.29a.402.402 0 00.402-.342l.309-2.116c.505-.2.968-.475 1.388-.784l2.047.8c.189.067.403 0 .506-.183l1.636-2.767c.103-.175.069-.391-.103-.508l-1.739-1.317c.043-.25.077-.525.077-.783s-.017-.533-.06-.783l1.74-1.317a.401.401 0 00.102-.508l-1.645-2.767c-.102-.183-.317-.242-.505-.183l-2.048.8a6.093 6.093 0 00-1.388-.784L10.056.342A.418.418 0 009.645 0h-3.29a.396.396 0 00-.403.342l-.308 2.116c-.505.2-.968.467-1.388.784l-2.047-.8a.414.414 0 00-.506.183L.058 5.392a.379.379 0 00.103.508l1.722 1.317zM8 5c1.696 0 3.084 1.35 3.084 3S9.696 11 8 11c-1.696 0-3.084-1.35-3.084-3S6.304 5 8 5z" fill="currentColor"/></svg>