<svg data-name="Layer 1" xmlns="http://www.w3.org/2000/svg" viewBox="0 0 16 16"><path d="M.57 4.57h1.72v10.86a.57.57 0 00.57.57H4a.57.57 0 00.57-.57V4.57h1.72a.57.57 0 00.4-1L3.83.17a.56.56 0 00-.83 0L.17 3.6a.57.57 0 00.4.97zm9.72 2.29h4.57a.58.58 0 00.57-.57V5.14a.58.58 0 00-.57-.57h-2l2.19-2.51a1.17 1.17 0 00.38-.86V.57a.58.58 0 00-.57-.57h-4.57a.58.58 0 00-.58.57v1.14a.58.58 0 00.58.58h2L10.1 4.8a1.14 1.14 0 00-.39.86v.63a.58.58 0 00.58.57zM16 15.24l-2.15-5.72a.57.57 0 00-.54-.38h-1.48a.57.57 0 00-.54.38l-2.11 5.72a.58.58 0 00.34.73.63.63 0 00.19 0h.89a.58.58 0 00.55-.4l.15-.46h2.54l.16.46a.56.56 0 00.54.4h.89a.58.58 0 00.57-.57.58.58 0 000-.16zm-4-2.1l.58-1.71.59 1.71z" fill="currentColor"/></svg>
