<svg data-name="Layer 1" xmlns="http://www.w3.org/2000/svg" viewBox="0 0 16 16"><path d="M6.57 11.43H4.86V.57A.58.58 0 004.29 0H3.14a.58.58 0 00-.57.57v10.86H.86a.57.57 0 00-.41 1l2.86 3.43a.56.56 0 00.81 0L7 12.4a.57.57 0 00-.43-.97zm8 2.28H14v-4a.58.58 0 00-.57-.57h-1.72a.59.59 0 00-.51.32l-.57 1.14a.57.57 0 00.26.77.54.54 0 00.25.06h.57v2.28h-.57a.58.58 0 00-.57.58v1.14a.58.58 0 00.57.57h3.43a.57.57 0 00.57-.57v-1.14a.57.57 0 00-.57-.58zM12.08.1a2.86 2.86 0 00.49 5.6 3 3 0 01-.74.46.6.6 0 00-.3.73l.36.71a.57.57 0 00.74.36 4.51 4.51 0 003.08-4.72v-.38A2.87 2.87 0 0012.08.1zm.78 3.47a.72.72 0 11.71-.71.71.71 0 01-.71.71z" fill="currentColor"/></svg>
