<svg data-name="Layer 1" xmlns="http://www.w3.org/2000/svg" viewBox="0 0 16 16"><path d="M6.33 11.43H4.62V.57A.58.58 0 004.05 0H2.9a.58.58 0 00-.57.57v10.86H.62a.57.57 0 00-.4 1l2.85 3.43a.56.56 0 00.81 0l2.86-3.46a.57.57 0 00-.41-.97zm8.57-2.29h-4.57a.58.58 0 00-.57.57v1.15a.58.58 0 00.57.57h2l-2.18 2.51a1.14 1.14 0 00-.39.86v.63a.58.58 0 00.57.57h4.57a.58.58 0 00.58-.57v-1.14a.58.58 0 00-.58-.58h-2l2.19-2.51a1.14 1.14 0 00.39-.86v-.63a.58.58 0 00-.58-.57zM16 6.09L13.9.38a.57.57 0 00-.54-.38h-1.48a.57.57 0 00-.54.38L9.22 6.09a.57.57 0 00.35.73.43.43 0 00.19 0h.89a.56.56 0 00.54-.4l.16-.42h2.54l.15.46a.58.58 0 00.55.4h.89a.58.58 0 00.57-.57.48.48 0 00-.05-.2zM12 4l.59-1.71L13.2 4z" fill="currentColor"/></svg>
