<svg data-name="Layer 1" xmlns="http://www.w3.org/2000/svg" viewBox="0 0 16 16"><path d="M12.08 8.1a2.86 2.86 0 00.49 5.6 3 3 0 01-.74.46.6.6 0 00-.3.73l.36.71a.57.57 0 00.74.36 4.51 4.51 0 003.08-4.72v-.38a2.87 2.87 0 00-3.63-2.76zm.78 3.47a.72.72 0 11.71-.71.71.71 0 01-.71.71zm-1.72-9.28h.57v2.28h-.57a.58.58 0 00-.57.57v1.15a.58.58 0 00.57.57h3.43a.57.57 0 00.57-.57V5.14a.57.57 0 00-.57-.57H14v-4a.58.58 0 00-.57-.57h-1.72a.57.57 0 00-.51.32l-.57 1.14a.57.57 0 00.26.77.71.71 0 00.25.06zM4.12.17a.56.56 0 00-.81 0L.45 3.6a.57.57 0 00.41 1h1.71v10.83a.58.58 0 00.57.57h1.15a.58.58 0 00.57-.57V4.57h1.71A.57.57 0 007 3.6z" fill="currentColor"/></svg>
