<svg data-name="Layer 1" xmlns="http://www.w3.org/2000/svg" viewBox="0 0 30 30"><path d="M24.08 6a57.05 57.05 0 014.07 4.3 7.54 7.54 0 011.79 3.74 7.55 7.55 0 010 1.9 7.54 7.54 0 01-1.79 3.74A57.05 57.05 0 0124.08 24l-.09.09a57.05 57.05 0 01-4.3 4.07A7.54 7.54 0 0116 29.94a7.55 7.55 0 01-1.9 0 7.54 7.54 0 01-3.74-1.79A57.05 57.05 0 016 24.08L5.92 24a57.05 57.05 0 01-4.07-4.3A7.54 7.54 0 01.06 16a7.55 7.55 0 010-1.9 7.54 7.54 0 011.79-3.74A57.05 57.05 0 015.92 6L6 5.92a57.05 57.05 0 014.3-4.07A7.54 7.54 0 0114.05.06a7.55 7.55 0 011.9 0 7.54 7.54 0 013.74 1.79A57.05 57.05 0 0124 5.92z" fill="#e2e7ed"/><path d="M19.67 9h-9.34A1.34 1.34 0 009 10.33v9.34A1.34 1.34 0 0010.33 21h9.34A1.34 1.34 0 0021 19.67v-9.34A1.34 1.34 0 0019.67 9zM13 18.33h-1.33v-4.66H13zm2.67 0h-1.34v-6.66h1.34zm2.66 0H17v-2.66h1.33z" fill="#4d64d2"/></svg>