<svg data-name="Layer 1" xmlns="http://www.w3.org/2000/svg" viewBox="0 0 32 32"><path d="M25.59 6.31l.1.1A61.61 61.61 0 0130 11a7.91 7.91 0 011.91 4 7.74 7.74 0 010 2A7.91 7.91 0 0130 21a61.61 61.61 0 01-4.33 4.59l-.1.1A61.61 61.61 0 0121 30a7.91 7.91 0 01-4 1.91 7.74 7.74 0 01-2 0A7.91 7.91 0 0111 30a61.61 61.61 0 01-4.59-4.33l-.1-.1A61.61 61.61 0 012 21a7.91 7.91 0 01-1.93-4 7.74 7.74 0 010-2A7.91 7.91 0 012 11a61.61 61.61 0 014.31-4.59l.1-.1A61.61 61.61 0 0111 2a7.91 7.91 0 014-1.93 7.74 7.74 0 012 0A7.91 7.91 0 0121 2a61.61 61.61 0 014.59 4.31zm-5.95-2.62a5.92 5.92 0 00-2.9-1.46 6.11 6.11 0 00-1.48 0 5.92 5.92 0 00-2.9 1.46C11.19 4.62 9.82 6 7.9 7.9s-3.28 3.29-4.21 4.46a5.92 5.92 0 00-1.46 2.9 6.11 6.11 0 000 1.48 5.92 5.92 0 001.46 2.9C4.62 20.81 6 22.18 7.9 24.1s3.29 3.28 4.46 4.21a5.92 5.92 0 002.9 1.46 6.11 6.11 0 001.48 0 5.92 5.92 0 002.9-1.46c1.17-.93 2.54-2.3 4.46-4.21s3.28-3.29 4.21-4.46a5.92 5.92 0 001.46-2.9 6.11 6.11 0 000-1.48 5.92 5.92 0 00-1.46-2.9C27.38 11.19 26 9.82 24.1 7.9s-3.29-3.28-4.46-4.21z" fill="#c1c8d1"/><path d="M20.67 10h-9.34A1.34 1.34 0 0010 11.33v9.34A1.34 1.34 0 0011.33 22h9.34A1.34 1.34 0 0022 20.67v-9.34A1.34 1.34 0 0020.67 10zM14 19.33h-1.33v-4.66H14zm2.67 0h-1.34v-6.66h1.34zm2.66 0H18v-2.66h1.33z" fill="#4d64d2"/></svg>