<svg width="32" height="31" viewBox="0 0 32 31" fill="none" xmlns="http://www.w3.org/2000/svg">
<path fill-rule="evenodd" clip-rule="evenodd" d="M22.3784 28.041C21.4873 28.8167 20.6233 29.4368 19.6236 29.8442C17.3013 30.7904 14.7009 30.7904 12.3785 29.8442C11.3788 29.4368 10.5148 28.8167 9.6237 28.041C8.75835 27.2877 7.76454 26.2938 6.53703 25.0663L6.43565 24.9649C5.20812 23.7374 4.21429 22.7436 3.46099 21.8782C2.68528 20.9872 2.06513 20.1231 1.65777 19.1234C0.711502 16.8011 0.711502 14.2007 1.65777 11.8784C2.06513 10.8786 2.68528 10.0146 3.46099 9.12353C4.21429 8.25818 5.20812 7.26436 6.43565 6.03686L6.53703 5.93548C7.76454 4.70795 8.75835 3.71411 9.6237 2.96081C10.5148 2.18511 11.3788 1.56496 12.3785 1.1576C14.7009 0.211329 17.3013 0.211328 19.6236 1.1576C20.6233 1.56496 21.4873 2.18511 22.3784 2.96081C23.2438 3.71411 24.2376 4.70794 25.4651 5.93546L25.5665 6.03687C26.794 7.26437 27.7878 8.25818 28.5411 9.12353C29.3168 10.0146 29.937 10.8786 30.3443 11.8784C31.2906 14.2007 31.2906 16.8011 30.3443 19.1234C29.937 20.1231 29.3168 20.9872 28.5411 21.8782C27.7878 22.7436 26.794 23.7374 25.5665 24.9649L25.4651 25.0663C24.2376 26.2938 23.2438 27.2877 22.3784 28.041ZM3.50992 18.3687C4.08897 19.7898 5.3595 21.0603 7.90055 23.6014C10.4416 26.1424 11.7121 27.413 13.1332 27.992C14.9717 28.7412 17.0304 28.7412 18.8689 27.992C20.29 27.413 21.5605 26.1424 24.1016 23.6014C26.6426 21.0603 27.9131 19.7898 28.4922 18.3687C29.2413 16.5302 29.2413 14.4716 28.4922 12.6331C27.9131 11.212 26.6426 9.94143 24.1016 7.40038C21.5605 4.85933 20.29 3.5888 18.8689 3.00975C17.0304 2.26061 14.9717 2.26061 13.1332 3.00974C11.7121 3.5888 10.4416 4.85933 7.90055 7.40038C5.3595 9.94143 4.08897 11.212 3.50992 12.6331C2.76079 14.4716 2.76079 16.5302 3.50992 18.3687Z" fill="#C1C9D2"/>
<path fill-rule="evenodd" clip-rule="evenodd" d="M19.9224 18.3849H12.5382C11.1372 18.3857 10.0008 17.2506 10 15.8496C9.9993 14.5966 10.9134 13.5309 12.1518 13.3407L12.1518 13.3407C12.5147 11.7257 14.1182 10.7107 15.7332 11.0736C16.4658 11.2382 17.1099 11.6717 17.5381 12.2885C18.734 11.8612 20.05 12.4843 20.4773 13.6803C20.5543 13.8957 20.5987 14.1213 20.609 14.3499C21.6911 14.7283 22.2615 15.9124 21.883 16.9945C21.5916 17.8277 20.8051 18.3854 19.9224 18.3849L19.9224 18.3849Z" fill="#4D64D2"/>
</svg>
