<svg width="16" height="15" fill="none" xmlns="http://www.w3.org/2000/svg"><path fill-rule="evenodd" clip-rule="evenodd" d="M14.333 14.5H1.667C.747 14.5 0 13.716 0 12.75V2.25C0 1.284.746.5 1.667.5h12.666C15.253.5 16 1.284 16 2.25v10.5c0 .966-.746 1.75-1.667 1.75zm-7-10.5H1.667a.342.342 0 00-.334.35V6.1h6V4zm0 3.5h-6v2.1h6V7.5zm0 3.5h-6v1.75c0 .193.15.35.334.35h5.666V11zm7.334-6.65c0-.193-.15-.35-.334-.35H8.667v2.1h6V4.35zm0 3.15h-6v2.1h6V7.5zm0 3.5h-6v2.1h5.666a.342.342 0 00.334-.35V11z" fill="currentColor"/></svg>