<svg width="17" height="17" xmlns="http://www.w3.org/2000/svg" fill-rule="evenodd" clip-rule="evenodd" stroke-linejoin="round" stroke-miterlimit="2">
  <path d="M14.837 2.45h-3.699v-.77a1.016 1.016 0 00-.095-.47 1.177 1.177 0 00-.619-.618A1.185 1.185 0 009.963.5H7.005c-.149 0-.294.032-.431.095-.143.065-.268.15-.371.253a1.21 1.21 0 00-.247.367 1.144 1.144 0 00-.093.461v.774h-3.7a.2.2 0 00-.2.2v.975c0 .11.09.2.2.2l.775.005 1.375-.004h8.375l1.373.004v-.004h.775a.2.2 0 00.2-.2V2.65a.2.2 0 00-.199-.2zm-5.074 0H7.238v-.575h2.525v.575zM2.938 4.58v10.258a1.642 1.642 0 00.484 1.176c.15.151.328.271.527.354.204.088.423.132.652.132h7.8c.229 0 .446-.044.649-.131a1.65 1.65 0 001.011-1.53V4.58H2.938zm7.386 1.802c0-.042.034-.075.075-.075h.9c.041 0 .075.034.075.075v8.15a.076.076 0 01-.075.075h-.9a.076.076 0 01-.075-.075v-8.15zm-2.349 0c0-.042.034-.075.075-.075h.9c.041 0 .075.034.075.075v8.15a.076.076 0 01-.075.075h-.9a.076.076 0 01-.075-.075v-8.15zm-2.35 0c0-.042.033-.075.075-.075h.9c.042 0 .075.034.075.075v8.15a.075.075 0 01-.075.075h-.9a.075.075 0 01-.075-.075v-8.15z" fill="#646d80" fill-rule="nonzero"/>
</svg>
