<svg width="17" height="16" fill="none" xmlns="http://www.w3.org/2000/svg">
  <path fill-rule="evenodd" clip-rule="evenodd" d="M12.312 11.52h-1.846a.628.628 0 01-.616-.64c0-.353.276-.64.616-.64h1.817c1.358.007 2.468-1.124 2.49-2.537.012-1.72-1.271-2.312-2.027-2.58a.633.633 0 01-.413-.545l-.031-.346c-.138-1.642-1.44-2.913-3.025-2.952-1.436-.017-2.19.857-2.679 1.499a.6.6 0 01-.613.223 2.912 2.912 0 00-.81-.12c-.98.035-1.761.86-1.782 1.878l-.01.417a.635.635 0 01-.386.578c-.798.325-1.811.851-1.76 2.355.052 1.195 1.002 2.135 2.152 2.13h2.154c.34 0 .615.287.615.64 0 .353-.275.64-.615.64H3.389C1.521 11.52.006 9.946.005 8.003c0-1.452.856-2.755 2.157-3.28.039-1.765 1.445-3.162 3.14-3.122.195.005.39.028.58.071C7.37-.255 10.08-.56 11.933.988a4.53 4.53 0 011.588 3.067c1.926.694 2.946 2.88 2.278 4.884-.515 1.546-1.915 2.582-3.488 2.581zM5.6 8.444l2.15-3.191a.299.299 0 01.505 0l2.15 3.191a.337.337 0 01-.075.459.308.308 0 01-.177.06H8.62v6.397c0 .354-.276.64-.616.64a.628.628 0 01-.615-.64V8.964H5.852a.323.323 0 01-.31-.335.338.338 0 01.058-.185z" fill="#000"/>
</svg>
