<svg width="61" height="60" viewBox="0 0 61 60" fill="none" xmlns="http://www.w3.org/2000/svg">
<g clip-path="url(#clip0)">
<path fill-rule="evenodd" clip-rule="evenodd" d="M43.1941 54.9465C41.4179 56.4927 39.6956 57.7289 37.7028 58.5409C33.0737 60.4271 27.8902 60.4271 23.2611 58.5409C21.2683 57.7289 19.546 56.4927 17.7698 54.9465C16.0448 53.4449 14.0638 51.4639 11.617 49.017L11.4149 48.8149C8.96805 46.3681 6.98702 44.3871 5.48544 42.6622C3.93921 40.886 2.70304 39.1637 1.89105 37.1709C0.00481739 32.5417 0.00481739 27.3583 1.89105 22.7291C2.70304 20.7364 3.93921 19.0141 5.48544 17.2378C6.98702 15.5129 8.96805 13.5319 11.4149 11.0851L11.617 10.883C14.0638 8.43613 16.0448 6.4551 17.7698 4.95352C19.546 3.40729 21.2683 2.17112 23.2611 1.35913C27.8902 -0.527103 33.0737 -0.527102 37.7028 1.35913C39.6956 2.17112 41.4179 3.40729 43.1941 4.95353C44.919 6.45509 46.9 8.43612 49.3468 10.883L49.549 11.0851C51.9958 13.5319 53.9768 15.5129 55.4784 17.2378C57.0247 19.0141 58.2608 20.7364 59.0728 22.7291C60.959 27.3583 60.959 32.5417 59.0728 37.1709C58.2608 39.1637 57.0247 40.886 55.4784 42.6622C53.9768 44.3871 51.9958 46.3681 49.549 48.8149L49.3468 49.0171C46.9 51.4639 44.919 53.4449 43.1941 54.9465ZM5.58298 35.6665C6.73723 38.4993 9.26981 41.0318 14.335 46.097C19.4001 51.1621 21.9327 53.6947 24.7654 54.849C28.4301 56.3422 32.5337 56.3422 36.1985 54.849C39.0312 53.6947 41.5638 51.1621 46.6289 46.097C51.6941 41.0318 54.2266 38.4993 55.3809 35.6665C56.8741 32.0018 56.8741 27.8982 55.3809 24.2335C54.2266 21.4008 51.6941 18.8682 46.6289 13.803C41.5638 8.73789 39.0312 6.20531 36.1985 5.05106C32.5337 3.5578 28.4301 3.5578 24.7654 5.05106C21.9327 6.20531 19.4001 8.73788 14.335 13.803C9.26981 18.8682 6.73723 21.4008 5.58298 24.2335C4.08972 27.8982 4.08972 32.0018 5.58298 35.6665Z" fill="#C1C9D2"/>
<path fill-rule="evenodd" clip-rule="evenodd" d="M36.9603 35.28H34.1913C33.6815 35.28 33.2683 34.8502 33.2683 34.32C33.2683 33.7899 33.6815 33.3601 34.1913 33.3601H36.9168C38.9538 33.3699 40.6193 31.6734 40.6524 29.555C40.67 26.9738 38.7452 26.0862 37.6115 25.6842C37.2681 25.5626 37.0255 25.2424 36.9922 24.8668L36.9452 24.3475C36.7381 21.8854 34.7843 19.9788 32.4086 19.9206C30.2543 19.8946 29.1227 21.2059 28.3903 22.1685C28.1702 22.4535 27.8132 22.5832 27.4704 22.5027C27.0749 22.3852 26.6659 22.3243 26.2546 22.3217C24.7863 22.3756 23.6136 23.6121 23.5818 25.1398L23.5674 25.7656C23.5598 26.1495 23.3316 26.4913 22.9884 26.6328C21.7918 27.1204 20.2716 27.9093 20.3493 30.1644C20.4266 31.9576 21.8507 33.3678 23.5766 33.3601H26.8071C27.3169 33.3601 27.7302 33.7899 27.7302 34.32C27.7302 34.8502 27.3169 35.28 26.8071 35.28H23.5766C20.7742 35.2814 18.5013 32.9197 18.5 30.005C18.499 27.8271 19.7845 25.8723 21.7363 25.0834C21.7939 22.4377 23.9029 20.3415 26.4468 20.4014C26.7387 20.4083 27.0294 20.444 27.3148 20.5081C29.5492 17.6175 33.6136 17.158 36.393 19.4819C37.7519 20.6182 38.6113 22.2777 38.7756 24.0831C41.6642 25.1242 43.1944 28.4037 42.1933 31.408C41.4208 33.7267 39.3199 35.2813 36.9603 35.28ZM26.8931 30.6665L30.1185 25.8789C30.2628 25.6618 30.549 25.6075 30.7578 25.7576C30.8034 25.7904 30.8429 25.8315 30.8745 25.8789L34.0998 30.6665C34.2516 30.8884 34.2016 31.1963 33.9882 31.3542C33.9103 31.4118 33.8175 31.4435 33.7219 31.4453H31.4222V41.04C31.4222 41.5702 31.009 42 30.4992 42C29.9894 42 29.5762 41.5702 29.5762 41.04V31.4453H27.2711C27.0092 31.4405 26.8008 31.2158 26.8054 30.9435C26.8071 30.8441 26.8377 30.7475 26.8931 30.6665Z" fill="#4D64D2"/>
</g>
<defs>
<clipPath id="clip0">
<rect width="60" height="60" fill="white" transform="translate(0.5)"/>
</clipPath>
</defs>
</svg>
