<svg width="18" height="18" fill="none" xmlns="http://www.w3.org/2000/svg"><path fill-rule="evenodd" clip-rule="evenodd" d="M9.954 3.747A2 2 0 0010.978 2c0-1.105-.894-2-1.996-2a1.998 1.998 0 00-1.996 2 2 2 0 001.002 1.735c-.002.069-.003.14-.003.214l-.001 1.053-2.065.024c-2.023.023-2.029.024-2.435.214-.572.268-1.006.693-1.252 1.227 0 0-.208.466-.208.959 0 .188-.002.843-.006 1.582h-.62c-.438.002-.71.039-.876.12a.976.976 0 00-.381.393c-.13.255-.141.44-.141 2.502 0 2.02.012 2.25.133 2.474.207.384.518.51 1.263.51h.601c.007 1.334.041 1.47.135 1.722.101.269.259.498.496.72l.057.053c.077.073.142.135.215.188.423.31 1.075.31 5.54.31H9c5.2 0 5.266-.002 5.676-.154a2.088 2.088 0 001.141-1.061c.1-.217.134-.321.146-1.779h.64c.439-.002.71-.039.876-.12a.975.975 0 00.381-.393c.13-.255.141-.44.141-2.502 0-2.019-.012-2.25-.133-2.473-.207-.385-.518-.51-1.263-.51h-.64c-.01-1.84-.037-2.125-.121-2.334-.175-.436-.588-.956-.925-1.19-.586-.406-.734-.429-2.927-.456L9.98 5.004l-.023-1.21-.003-.047zm-3.44 5.159c.748.378.923 1.275.376 1.926a1.204 1.204 0 01-1.834 0c-.547-.65-.372-1.548.377-1.926.175-.089.419-.162.54-.162.122 0 .365.073.54.162zm6.142.063c.549.366.719 1.173.361 1.713-.68 1.027-2.27.551-2.27-.679 0-.557.334-1.004.898-1.201.254-.09.748-.008 1.01.167zm-7.91 4.97c-.141-.384.014-.825.357-1.015.395-.219.67-.128 1.144.374.376.4 1.004.804 1.53.984.338.116.534.141 1.09.14 1.08-.005 1.779-.306 2.628-1.133.231-.225.49-.428.574-.45.39-.1.864.193.948.586.077.36-.015.587-.401.99a5.43 5.43 0 01-2.484 1.506c-.669.187-1.862.187-2.531 0-.585-.163-1.328-.526-1.778-.867-.45-.343-1.002-.914-1.077-1.115z" fill="#1EA672"/></svg>