<svg width="18" height="18" fill="none" xmlns="http://www.w3.org/2000/svg"><g clip-path="url(#clip0)"><path fill-rule="evenodd" clip-rule="evenodd" d="M6.74 2.046a.501.501 0 000 .708l1.245 1.248-.001 1.001-2.065.024c-2.023.023-2.029.024-2.435.214-.572.268-1.006.693-1.252 1.227 0 0-.208.467-.208.96 0 .188-.002.844-.006 1.584h-.62c-.438.002-.71.039-.876.12a.976.976 0 00-.381.393C.011 9.78 0 9.965 0 12.028c0 2.02.012 2.251.133 2.474.207.385.518.511 1.263.511h.601c.007 1.334.041 1.47.135 1.722.101.269.259.498.496.72l.057.053c.077.073.142.135.215.188.424.311 1.075.31 5.54.31H9c5.2 0 5.266-.001 5.676-.153a2.088 2.088 0 001.141-1.062c.1-.217.134-.321.146-1.779h.64c.439-.002.71-.039.876-.12a.976.976 0 00.381-.393c.13-.255.141-.44.141-2.503 0-2.02-.012-2.251-.133-2.475-.207-.384-.518-.51-1.263-.51h-.64c-.01-1.84-.037-2.126-.121-2.335-.175-.437-.588-.957-.925-1.19-.586-.407-.734-.43-2.927-.456L9.98 5.005l-.019-.987 1.262-1.264a.501.501 0 000-.708L9.335.154a.499.499 0 00-.706 0L6.74 2.046zm.15 8.79c.547-.652.372-1.55-.376-1.927-.176-.09-.42-.162-.54-.162-.122 0-.366.073-.542.162-.748.378-.923 1.275-.376 1.926a1.204 1.204 0 001.834 0zm6.127-.15c.358-.541.188-1.348-.361-1.714-.263-.175-.757-.257-1.011-.168-.564.198-.898.645-.898 1.203 0 1.23 1.59 1.706 2.27.679zm-.387 5.27c.343-.19.497-.631.356-1.015-.074-.202-.625-.774-1.076-1.116-.449-.342-1.19-.704-1.775-.867-.668-.187-1.86-.187-2.528 0a5.423 5.423 0 00-2.481 1.506c-.386.403-.478.63-.401.99.083.394.557.687.947.586.084-.021.342-.224.573-.45.849-.827 1.547-1.128 2.626-1.132.555-.002.75.023 1.088.14.525.18 1.153.584 1.528.983.473.503.749.593 1.143.375z" fill="#E56F4A"/></g><defs><clipPath id="clip0"><path fill="#fff" d="M0 0h18v18H0z"/></clipPath></defs></svg>