<svg width="18" height="18" fill="none" xmlns="http://www.w3.org/2000/svg"><g clip-path="url(#clip0)"><path fill-rule="evenodd" clip-rule="evenodd" d="M11.477 1.5a.5.5 0 00-.5-.5h-3.99a.5.5 0 00-.5.5V3a.5.5 0 00.5.5h1.011a7.164 7.164 0 00-.013.45l-.001 1.052-2.065.024c-2.023.023-2.029.024-2.435.214-.572.268-1.006.693-1.252 1.227 0 0-.208.466-.208.959 0 .188-.002.843-.006 1.582h-.62c-.438.002-.71.039-.876.12a.976.976 0 00-.381.393c-.13.255-.141.44-.141 2.502 0 2.02.012 2.25.133 2.474.207.384.518.51 1.263.51h.601c.007 1.334.041 1.47.135 1.722.101.269.259.498.496.72l.057.053c.077.073.142.135.215.188.423.31 1.075.31 5.54.31H9c5.2 0 5.266-.002 5.676-.154a2.088 2.088 0 001.141-1.061c.1-.217.134-.321.146-1.779h.64c.439-.002.71-.039.876-.12a.975.975 0 00.381-.393c.13-.255.141-.44.141-2.502 0-2.019-.012-2.25-.133-2.473-.207-.385-.518-.51-1.263-.51h-.64c-.01-1.84-.037-2.125-.121-2.334-.175-.436-.588-.956-.925-1.19-.586-.406-.734-.429-2.927-.456L9.98 5.004l-.023-1.21-.022-.294h1.042a.5.5 0 00.5-.5V1.5zM6.514 8.906c.748.378.923 1.275.376 1.926a1.204 1.204 0 01-1.834 0c-.547-.65-.372-1.548.377-1.926.175-.089.419-.162.54-.162.122 0 .365.073.54.162zm6.142.063c.549.366.719 1.173.361 1.713-.68 1.027-2.27.551-2.27-.679 0-.557.334-1.004.898-1.201.254-.09.748-.008 1.01.167zm-7.962 5.424c0-.266.212-.607.48-.772.208-.128.34-.133 3.694-.133s3.486.005 3.695.133c.267.165.479.506.479.772 0 .265-.212.606-.48.771-.208.129-.34.133-3.694.133s-3.486-.005-3.694-.133c-.268-.165-.48-.506-.48-.771z" fill="#E89A3B"/></g><defs><clipPath id="clip0"><path fill="#fff" d="M0 0h18v18H0z"/></clipPath></defs></svg>