<svg width="18" height="18" fill="none" xmlns="http://www.w3.org/2000/svg"><path fill-rule="evenodd" clip-rule="evenodd" d="M9.44.461a.5.5 0 00-.917 0l-.307.71a.5.5 0 01-.459.302h-.613c-.518 0-.694.69-.24.939l.227.123a.5.5 0 01.22.638l-.139.32a.5.5 0 00.699.638l.074-.041-.001.912-2.065.024c-2.023.023-2.029.024-2.435.214-.572.268-1.006.693-1.252 1.227 0 0-.208.466-.208.959 0 .188-.002.843-.006 1.582h-.62c-.438.002-.71.039-.876.12a.976.976 0 00-.381.393c-.13.255-.141.44-.141 2.502 0 2.02.012 2.25.133 2.474.207.384.518.51 1.263.51h.601c.007 1.334.041 1.47.135 1.722.101.269.259.498.496.72l.057.053c.077.073.142.135.215.188.423.31 1.075.31 5.54.31H9c5.2 0 5.266-.002 5.676-.154a2.088 2.088 0 001.141-1.061c.1-.217.134-.321.146-1.779h.64c.439-.002.71-.039.876-.12a.975.975 0 00.381-.393c.13-.255.141-.44.141-2.502 0-2.019-.012-2.25-.133-2.473-.207-.385-.518-.51-1.263-.51h-.64c-.01-1.84-.037-2.125-.121-2.334-.175-.436-.588-.956-.925-1.19-.586-.406-.734-.429-2.927-.456L9.98 5.004l-.017-.923.09.05a.5.5 0 00.699-.637l-.139-.321a.5.5 0 01.22-.638l.226-.123c.455-.248.278-.94-.24-.94h-.612a.5.5 0 01-.46-.3l-.306-.71zM6.515 8.906c.748.378.923 1.275.376 1.926a1.204 1.204 0 01-1.834 0c-.547-.65-.372-1.548.377-1.926.175-.089.419-.162.54-.162.122 0 .365.073.54.162zm6.142.063c.549.366.719 1.173.361 1.713-.68 1.027-2.27.551-2.27-.679 0-.557.334-1.004.898-1.201.254-.09.748-.008 1.01.167zM4.81 13.753c-.14-.396-.118-.639.071-.787.192-.152.256-.155.696-.033l.227.063h.002c.976.274 1.8.504 3.193.504s2.217-.23 3.193-.503l.229-.064c.44-.122.504-.119.696.033.189.148.21.391.072.787C12.761 14.967 11 16 9 16c-2 0-3.762-1.033-4.19-2.247z" fill="#0E6245"/></svg>