<svg width="18" height="18" fill="none" xmlns="http://www.w3.org/2000/svg"><g clip-path="url(#clip0)"><path fill-rule="evenodd" clip-rule="evenodd" d="M7.986 0a1 1 0 00-1 1v2a1 1 0 001 1l-.002 1.002-2.065.024c-2.023.023-2.029.024-2.435.214-.572.268-1.006.693-1.252 1.227 0 0-.208.466-.208.959 0 .188-.002.84-.006 1.575h-.62c-.438.002-.71.039-.876.12a.976.976 0 00-.381.393C.011 9.77 0 9.954 0 12.016c0 2.019.012 2.25.133 2.473.207.385.518.511 1.263.511h.601c.007 1.34.041 1.477.135 1.729.101.269.259.498.496.72l.057.053c.077.073.142.135.215.188.423.31 1.075.31 5.54.31H9c5.2 0 5.266-.002 5.676-.154a2.088 2.088 0 001.141-1.061c.1-.217.134-.322.146-1.786h.64c.439-.002.71-.039.876-.12a.975.975 0 00.381-.393c.13-.255.141-.44.141-2.502 0-2.019-.012-2.25-.133-2.473C17.66 9.126 17.35 9 16.604 9h-.64c-.01-1.833-.038-2.117-.121-2.326-.175-.436-.588-.956-.925-1.19-.586-.406-.734-.429-2.927-.456L9.98 5.004 9.96 4h.017a1 1 0 001-1V1a1 1 0 00-1-1H7.986zM6.89 10.832c.547-.65.372-1.548-.376-1.926-.176-.089-.42-.162-.54-.162-.122 0-.366.073-.542.162-.748.378-.923 1.275-.376 1.926a1.204 1.204 0 001.834 0zm6.127-.15c.358-.54.188-1.347-.361-1.713-.263-.175-.757-.257-1.011-.167-.564.197-.898.644-.898 1.201 0 1.23 1.59 1.706 2.27.68zm.1 5.199c.19-.149.212-.392.072-.788C12.763 13.88 11 12.846 9 12.846s-3.762 1.033-4.19 2.247c-.139.396-.117.64.072.788.192.151.256.154.696.032l.228-.063h.001c.976-.273 1.8-.504 3.193-.504s2.217.23 3.193.504l.229.063c.44.122.504.12.696-.032z" fill="#80143F"/></g><defs><clipPath id="clip0"><path fill="#fff" d="M0 0h18v18H0z"/></clipPath></defs></svg>