<svg xmlns="http://www.w3.org/2000/svg" width="16" height="16">
  <path fill="#4151A3" d="M10.501 1.103l.452.452c1.202 1.467 1.98 3.81 1.979 6.448-.001 2.595-.757 4.9-1.926 6.372l.009.009 3.998-3.995a3.371 3.371 0 00.001-4.766L10.387.99l.114.113zM.986 10.381l4.062 4.063c-1.202-1.466-1.979-3.809-1.979-6.446.001-2.595.757-4.9 1.926-6.372l-.009-.009L.988 5.614a3.372 3.372 0 00-.002 4.767z"/>
  <path fill="#7389C5" d="M14.898 10.5l-.452.453c-1.467 1.201-3.81 1.979-6.448 1.979-2.595-.002-4.9-.757-6.37-1.926l-.009.009 3.995 3.998a3.373 3.373 0 004.767.001l4.631-4.628-.114.114zM5.62.987L1.555 5.048c1.467-1.202 3.81-1.979 6.447-1.979 2.596.001 4.901.757 6.372 1.926l.009-.009L10.386.987a3.37 3.37 0 00-4.766 0z"/>
</svg>
